<svg width="100%" height="100%" viewBox="0 0 305 101" fill="none" xmlns="http://www.w3.org/2000/svg">
<path d="M44.8696 73.5498C44.8527 75.7209 47.1978 77.0841 49.0771 76.0014L65.9299 66.2735C66.7994 65.7742 67.3324 64.8429 67.3324 63.8387C67.3324 61.6844 64.993 60.338 63.1248 61.4151L46.2721 71.1431C45.4081 71.6423 44.8752 72.5568 44.8696 73.5498Z" fill="#E91675"/>
<path d="M84.0842 29.8696C84.0729 21.8639 79.798 14.4698 72.864 10.4698L61.6662 4.0014C58.1935 1.99859 54.3226 0.994385 50.446 0.994385C46.5694 0.994385 42.6536 2.00981 39.1641 4.03506L11.1585 20.3268C4.25245 24.3436 0 31.7321 0 39.7265V72.0014C0 80.0182 4.2749 87.4292 11.2202 91.4348L22.5806 97.993C26.0533 99.9958 29.9299 101 33.8008 101C37.6718 101 41.5933 99.9846 45.0827 97.9593L72.9762 81.7405C79.8934 77.7181 84.1515 70.3128 84.1346 62.3071L84.0842 29.8696ZM70.1543 76.8878L42.2609 93.1066C39.6971 94.5989 36.7686 95.3899 33.8008 95.3899C30.8331 95.3899 27.9383 94.6101 25.3857 93.1346L14.0252 86.5764C8.81907 83.5694 5.6101 78.0154 5.6101 72.0014V54.1893C5.6101 52.0294 7.94951 50.683 9.81767 51.7602L21.0379 58.2398C24.9313 60.4895 29.2959 61.6115 33.6606 61.6115C38.0252 61.6115 42.3955 60.4895 46.2889 58.2398L65.9243 46.9635C66.7938 46.4642 67.3324 45.533 67.3324 44.5287V44.5063C67.3324 42.3464 64.9986 41 63.1304 42.0771L43.4839 53.3815C37.425 56.8822 29.9018 56.8822 23.8429 53.3815L8.31417 44.4165C6.64236 43.4516 5.6101 41.662 5.6101 39.7321C5.6101 33.7405 8.79663 28.1978 13.9804 25.1851L41.9804 8.8934C44.5442 7.40112 47.4727 6.61009 50.4404 6.61009C53.4081 6.61009 56.3029 7.3899 58.8555 8.86535L70.0533 15.3338C75.237 18.324 78.4572 23.9004 78.4684 29.8808L78.5189 62.3184C78.5302 68.2987 75.3212 73.8864 70.1487 76.8934L70.1543 76.8878Z" fill="#E91675"/>
<path d="M100.095 34.0491C100.095 29.4488 103.59 26.2006 109.464 26.2006C112.836 26.2006 115.259 27.1431 117.15 29.4039C116.864 25.5834 113.655 23.6928 109.257 23.6928C106.255 23.6928 103.461 24.7644 101.24 26.6494V19.1262C103.832 17.359 107.489 15.9229 112.544 15.9229C121.835 15.9229 126.928 20.5231 126.928 28.9495V41.0337H117.189V38.0323C115.506 40.5007 112.791 41.8527 108.886 41.8527C103.299 41.8527 100.09 38.4811 100.09 34.0435L100.095 34.0491ZM112.959 36.1865C115.428 36.1865 117.195 35.115 117.195 33.432C117.195 31.7489 115.512 30.7616 113.004 30.7616C110.704 30.7616 109.262 31.8724 109.262 33.4769C109.262 35.0813 110.698 36.1921 112.959 36.1921V36.1865Z" fill="#E91675"/>
<path d="M136.802 38.8569L126.283 16.9944H137.01L142.435 29.9425L148.23 16.9944H158.872L142.76 48.8485H131.417L136.802 38.8625V38.8569Z" fill="#E91675"/>
<path d="M157.397 28.7868C157.397 21.5105 162.985 15.9229 173.223 15.9229C177.992 15.9229 181.195 17.0729 183.456 18.5091V26.0323C181.728 24.8429 179.142 23.8107 176.017 23.8107C170.799 23.8107 167.877 25.9481 167.877 28.8654C167.877 31.7826 170.508 33.9201 176.056 33.9201C178.973 33.9201 181.767 32.9327 183.534 31.8668V39.1431C180.656 40.871 177.122 41.8583 173.055 41.8583C162.738 41.8583 157.397 36.0238 157.397 28.7868Z" fill="#E91675"/>
<path d="M186.087 28.6634C186.087 21.3478 191.596 15.9229 200.965 15.9229C210.334 15.9229 214.648 20.7307 214.648 28.0463V30.8008H196.275C197.47 32.9776 200.342 34.251 204.864 34.251C208.482 34.251 211.237 33.3478 213.823 31.7826V38.8906C211.192 40.6185 206.917 41.8471 202.272 41.8471C192.163 41.8471 186.081 36.4222 186.081 28.6522L186.087 28.6634ZM206.553 26.4025C206.143 24.3043 204.376 23.115 201.453 23.115C198.53 23.115 196.606 24.4278 196.028 26.4025H206.553Z" fill="#E91675"/>
<path d="M100.017 62.9187C100.017 55.6031 105.526 50.1781 114.895 50.1781C124.264 50.1781 128.578 54.986 128.578 62.3015V65.0561H110.205C111.394 67.2328 114.272 68.5063 118.794 68.5063C122.412 68.5063 125.167 67.6031 127.753 66.0379V73.1459C125.122 74.8738 120.847 76.1024 116.202 76.1024C106.093 76.1024 100.011 70.6774 100.011 62.9074L100.017 62.9187ZM120.482 60.6578C120.073 58.5596 118.306 57.3703 115.388 57.3703C112.471 57.3703 110.541 58.683 109.964 60.6578H120.482Z" fill="#E91675"/>
<path d="M137.217 62.5484L129.324 51.244H140.421L144.572 57.6564L148.886 51.244H160.146L152.297 62.5484L160.724 75.2889H149.133L144.527 68.1809L139.966 75.2889H128.83L137.217 62.5484Z" fill="#E91675"/>
<path d="M162.698 51.244H172.724V57.1234C174.081 52.641 177.532 50.1781 183.041 50.1781C190.025 50.1781 194.3 55.7658 194.3 63.0813C194.3 70.8513 189.532 76.108 182.749 76.108C178.025 76.108 174.569 74.3015 172.724 70.4362V83.0926H162.698V51.2384V51.244ZM178.194 68.4222C181.644 68.4222 183.826 66.2006 183.826 63.1206C183.826 60.0407 181.689 57.8583 178.278 57.8583C174.867 57.8583 172.69 60.1192 172.69 63.1992C172.69 66.2791 174.743 68.4165 178.199 68.4165L178.194 68.4222Z" fill="#E91675"/>
<path d="M197.801 51.244H207.663V58.8906C208.774 53.2188 211.237 50.7111 215.018 50.7111C216.701 50.7111 217.975 51.2048 218.76 51.6985V60.5736C217.941 60.0407 216.539 59.547 214.693 59.547C210.502 59.547 207.871 61.9313 207.871 67.7265V75.2889H197.801V51.244Z" fill="#E91675"/>
<path d="M220.123 62.9187C220.123 55.6031 225.633 50.1781 235.001 50.1781C244.37 50.1781 248.684 54.986 248.684 62.3015V65.0561H230.311C231.506 67.2328 234.379 68.5063 238.9 68.5063C242.519 68.5063 245.273 67.6031 247.86 66.0379V73.1459C245.229 74.8738 240.954 76.1024 236.309 76.1024C226.199 76.1024 220.118 70.6774 220.118 62.9074L220.123 62.9187ZM240.589 60.6578C240.18 58.5596 238.412 57.3703 235.49 57.3703C232.567 57.3703 230.642 58.683 230.065 60.6578H240.589Z" fill="#E91675"/>
<path d="M251.529 72.7419V65.9201C254.244 68.0182 259.299 69.4937 263.49 69.4937C265.627 69.4937 266.491 68.8373 266.491 68.1809C266.491 67.4404 266.16 66.8682 264.477 66.453L259.546 65.3422C253.75 63.9846 251.736 61.6844 251.736 58.0266C251.736 53.2581 256.668 50.1781 264.477 50.1781C269.33 50.1781 273.234 51.3675 275.574 52.8093V59.2609C273.105 57.8247 269.616 56.7532 265.913 56.7532C263.159 56.7532 262.048 57.2468 262.048 58.0659C262.048 58.9691 262.872 59.216 264.842 59.6255L268.954 60.3661C274.048 61.2693 276.926 63.1992 276.926 67.9677C276.926 72.7363 272.567 76.108 264.393 76.108C259.663 76.108 255.102 74.9187 251.529 72.7363V72.7419Z" fill="#E91675"/>
<path d="M279.602 72.7419V65.9201C282.317 68.0182 287.372 69.4937 291.562 69.4937C293.7 69.4937 294.564 68.8373 294.564 68.1809C294.564 67.4404 294.233 66.8682 292.55 66.453L287.619 65.3422C281.823 63.9846 279.809 61.6844 279.809 58.0266C279.809 53.2581 284.741 50.1781 292.55 50.1781C297.402 50.1781 301.307 51.3675 303.647 52.8093V59.2609C301.178 57.8247 297.689 56.7532 293.986 56.7532C291.231 56.7532 290.121 57.2468 290.121 58.0659C290.121 58.9691 290.945 59.216 292.914 59.6255L297.027 60.3661C302.121 61.2693 304.999 63.1992 304.999 67.9677C304.999 72.7363 300.64 76.108 292.466 76.108C287.736 76.108 283.175 74.9187 279.602 72.7363V72.7419Z" fill="#E91675"/>
</svg>
