<svg width="100%" height="100%" viewBox="0 0 85 100" fill="none" xmlns="http://www.w3.org/2000/svg">
<path d="M44.8671 72.5513C44.8502 74.7223 47.1951 76.0855 49.0744 75.0028L65.9262 65.2754C66.7957 64.7762 67.3286 63.8449 67.3286 62.8408C67.3286 60.6866 64.9893 59.3403 63.1213 60.4174L46.2695 70.1447C45.4056 70.644 44.8727 71.5584 44.8671 72.5513Z" fill="#E91675"/>
<path d="M84.0794 28.8736C84.0682 20.8684 79.7936 13.4747 72.8599 9.47492L61.6627 3.00684C58.1903 1.00415 54.3195 0 50.4432 0C46.5668 0 42.6512 1.01537 39.1619 3.0405L11.1579 19.3313C4.25222 23.3479 0 30.736 0 38.7299V71.003C0 79.0194 4.27466 86.4299 11.2196 90.4353L22.5794 96.9932C26.0518 98.9958 29.9282 100 33.7989 100C37.6697 100 41.5909 98.9846 45.0802 96.9595L72.9721 80.7416C79.8889 76.7194 84.1468 69.3145 84.1299 61.3093L84.0794 28.8736ZM70.1504 75.8892L42.2585 92.107C39.6948 93.5992 36.7665 94.3902 33.7989 94.3902C30.8314 94.3902 27.9367 93.6105 25.3843 92.1351L14.0245 85.5772C8.81858 82.5704 5.60978 77.0167 5.60978 71.003V53.192C5.60978 51.0322 7.94906 49.6859 9.81712 50.7629L21.0367 57.2422C24.9299 59.4918 29.2943 60.6137 33.6587 60.6137C38.0231 60.6137 42.3931 59.4918 46.2863 57.2422L65.9206 45.9666C66.7901 45.4673 67.3286 44.5361 67.3286 43.5319V43.5095C67.3286 41.3497 64.995 40.0034 63.1269 41.0804L43.4814 52.3842C37.4229 55.8847 29.9001 55.8847 23.8416 52.3842L8.3137 43.4197C6.64198 42.4548 5.60978 40.6653 5.60978 38.7356C5.60978 32.7443 8.79614 27.2018 13.9796 24.1894L41.978 7.89858C44.5417 6.40637 47.47 5.61539 50.4376 5.61539C53.4051 5.61539 56.2998 6.39515 58.8522 7.87053L70.0494 14.3386C75.2328 17.3286 78.4528 22.9047 78.464 28.8848L78.5145 61.3205C78.5258 67.3006 75.317 72.8879 70.1447 75.8948L70.1504 75.8892Z" fill="#E91675"/>
</svg>
