<svg width="100%" height="100%" viewBox="0 0 24 24" fill="none" xmlns="http://www.w3.org/2000/svg">
<path d="M11.3106 16.649H12.7096V12.7096H16.649V11.3106H12.7096V7.35098H11.3106V11.3106H7.35098V12.7096H11.3106V16.649ZM12.0023 21.298C10.7164 21.298 9.50755 21.0537 8.37565 20.5649C7.24375 20.0762 6.25915 19.4129 5.42185 18.5751C4.58455 17.7372 3.92191 16.7534 3.43392 15.6237C2.94594 14.4939 2.70195 13.2868 2.70195 12.0023C2.70195 10.7164 2.94633 9.50755 3.43507 8.37565C3.92381 7.24375 4.5871 6.25915 5.42495 5.42185C6.26278 4.58455 7.24658 3.92191 8.37633 3.43392C9.50608 2.94594 10.7132 2.70195 11.9977 2.70195C13.2836 2.70195 14.4924 2.94633 15.6244 3.43507C16.7563 3.92381 17.7408 4.5871 18.5781 5.42495C19.4154 6.26278 20.0781 7.24658 20.5661 8.37633C21.0541 9.50608 21.298 10.7132 21.298 11.9977C21.298 13.2836 21.0537 14.4924 20.5649 15.6244C20.0762 16.7563 19.4129 17.7408 18.5751 18.5781C17.7372 19.4154 16.7534 20.0781 15.6237 20.5661C14.4939 21.0541 13.2868 21.298 12.0023 21.298ZM11.9997 19.899C14.198 19.899 16.0641 19.1322 17.5981 17.5984C19.1321 16.0646 19.899 14.1986 19.899 12.0003C19.899 9.80203 19.1322 7.93589 17.5984 6.40192C16.0646 4.86794 14.1986 4.10095 12.0003 4.10095C9.80203 4.10095 7.93589 4.86783 6.40192 6.4016C4.86794 7.93537 4.10095 9.80139 4.10095 11.9997C4.10095 14.198 4.86783 16.0641 6.4016 17.5981C7.93537 19.1321 9.80139 19.899 11.9997 19.899Z" fill="currentColor"/>
</svg>
