<svg width="40" height="40" viewBox="0 0 40 40" fill="none" xmlns="http://www.w3.org/2000/svg">
<circle cx="20" cy="20" r="20" fill="#F7931A"/>
<path d="M27.9181 18.0404C28.2294 15.9389 26.6454 14.8091 24.4795 14.0555L25.1821 11.2087L23.4667 10.7768L22.7827 13.5486C22.3318 13.4351 21.8686 13.328 21.4084 13.2219L22.0973 10.4319L20.3828 10L19.6798 12.8458C19.3065 12.7599 18.9401 12.675 18.5844 12.5857L18.5864 12.5768L16.2207 11.9801L15.7644 13.8309C15.7644 13.8309 17.0371 14.1256 17.0102 14.1438C17.705 14.319 17.8305 14.7834 17.8095 15.1516L17.0092 18.3947C17.0571 18.4071 17.1192 18.4248 17.1876 18.4525C17.1304 18.4382 17.0693 18.4224 17.0063 18.4071L15.8845 22.9502C15.7995 23.1634 15.5841 23.4832 15.0984 23.3618C15.1155 23.387 13.8516 23.0474 13.8516 23.0474L13 25.031L15.2323 25.5931C15.6476 25.6982 16.0546 25.8083 16.4552 25.9119L15.7453 28.7913L17.4587 29.2232L18.1618 26.3744C18.6298 26.5027 19.0842 26.6212 19.5288 26.7327L18.8282 29.5681L20.5436 30L21.2535 27.1261C24.1786 27.6853 26.3781 27.4597 27.304 24.7872C28.0501 22.6353 27.2669 21.394 25.7279 20.5846C26.8486 20.3235 27.6929 19.5788 27.9181 18.0404ZM23.9988 23.5923C23.4687 25.7441 19.8821 24.5808 18.7192 24.2892L19.6612 20.4745C20.824 20.7677 24.5528 21.3481 23.9988 23.5923ZM24.5294 18.0093C24.0457 19.9667 21.0605 18.9722 20.0921 18.7284L20.9462 15.2686C21.9145 15.5124 25.0331 15.9675 24.5294 18.0093Z" fill="white"/>
</svg>
