<svg width="48" height="48" viewBox="0 0 48 48" fill="none" xmlns="http://www.w3.org/2000/svg">
<rect x="4" y="5" width="40" height="16" rx="8" fill="#FFF0F7" stroke="#022C45" stroke-width="1.5" stroke-linejoin="round"/>
<rect x="4" y="27" width="30" height="16" rx="8" fill="#FBD0E3" stroke="#022C45" stroke-width="1.5" stroke-linejoin="round"/>
<path d="M15.2741 34.2162C15.3989 33.3755 14.7635 32.9236 13.8947 32.6222L14.1765 31.4835L13.4884 31.3107L13.214 32.4194C13.0332 32.374 12.8473 32.3312 12.6627 32.2888L12.9391 31.1727L12.2513 31L11.9693 32.1383C11.8196 32.104 11.6726 32.07 11.5299 32.0343L11.5307 32.0307L10.5817 31.792L10.3987 32.5324C10.3987 32.5324 10.9092 32.6502 10.8984 32.6575C11.1771 32.7276 11.2275 32.9134 11.2191 33.0607L10.898 34.3579C10.9173 34.3628 10.9421 34.3699 10.9696 34.381C10.9467 34.3753 10.9222 34.3689 10.8969 34.3628L10.4469 36.1801C10.4128 36.2654 10.3264 36.3933 10.1315 36.3447C10.1384 36.3548 9.63137 36.219 9.63137 36.219L9.28976 37.0124L10.1852 37.2372C10.3518 37.2793 10.5151 37.3233 10.6758 37.3648L10.391 38.5165L11.0784 38.6893L11.3604 37.5498C11.5481 37.6011 11.7304 37.6485 11.9088 37.6931L11.6277 38.8273L12.3158 39L12.6006 37.8504C13.774 38.0741 14.6563 37.9839 15.0277 36.9149C15.327 36.0541 15.0128 35.5576 14.3955 35.2338C14.8451 35.1294 15.1837 34.8315 15.2741 34.2162ZM13.7019 36.4369C13.4892 37.2977 12.0505 36.8323 11.584 36.7157L11.9619 35.1898C12.4283 35.3071 13.9241 35.5392 13.7019 36.4369ZM13.9147 34.2037C13.7207 34.9867 12.5232 34.5889 12.1347 34.4913L12.4773 33.1074C12.8658 33.205 14.1168 33.387 13.9147 34.2037Z" fill="#022C45"/>
<path d="M15.2741 12.2162C15.3989 11.3755 14.7635 10.9236 13.8947 10.6222L14.1765 9.48348L13.4884 9.31074L13.214 10.4194C13.0332 10.374 12.8473 10.3312 12.6627 10.2888L12.9391 9.17274L12.2513 9L11.9693 10.1383C11.8196 10.104 11.6726 10.07 11.5299 10.0343L11.5307 10.0307L10.5817 9.79204L10.3987 10.5324C10.3987 10.5324 10.9092 10.6502 10.8984 10.6575C11.1771 10.7276 11.2275 10.9134 11.2191 11.0607L10.898 12.3579C10.9173 12.3628 10.9421 12.3699 10.9696 12.381C10.9467 12.3753 10.9222 12.3689 10.8969 12.3628L10.4469 14.1801C10.4128 14.2654 10.3264 14.3933 10.1315 14.3447C10.1384 14.3548 9.63137 14.219 9.63137 14.219L9.28976 15.0124L10.1852 15.2372C10.3518 15.2793 10.5151 15.3233 10.6758 15.3648L10.391 16.5165L11.0784 16.6893L11.3604 15.5498C11.5481 15.6011 11.7304 15.6485 11.9088 15.6931L11.6277 16.8273L12.3158 17L12.6006 15.8504C13.774 16.0741 14.6563 15.9839 15.0277 14.9149C15.327 14.0541 15.0128 13.5576 14.3955 13.2338C14.8451 13.1294 15.1837 12.8315 15.2741 12.2162ZM13.7019 14.4369C13.4892 15.2977 12.0505 14.8323 11.584 14.7157L11.9619 13.1898C12.4283 13.3071 13.9241 13.5392 13.7019 14.4369ZM13.9147 12.2037C13.7207 12.9867 12.5232 12.5889 12.1347 12.4913L12.4773 11.1074C12.8658 11.205 14.1168 11.387 13.9147 12.2037Z" fill="#022C45"/>
<path d="M18.5192 14.4185H19.4281C19.5753 14.4185 19.7181 14.3947 19.8566 14.3471C19.9951 14.2995 20.1184 14.2216 20.2266 14.1134C20.3348 14.0008 20.4214 13.8559 20.4863 13.6784C20.5512 13.501 20.5837 13.2846 20.5837 13.0292C20.5837 12.7955 20.5599 12.5856 20.5123 12.3995C20.469 12.2091 20.3954 12.0468 20.2916 11.9126C20.1877 11.7784 20.0492 11.6767 19.8761 11.6075C19.7073 11.5339 19.4974 11.4971 19.2463 11.4971H18.5192V14.4185ZM17.5 10.6402H19.4995C19.7982 10.6402 20.0752 10.6878 20.3305 10.783C20.5902 10.8782 20.8131 11.021 20.9992 11.2115C21.1896 11.4019 21.3368 11.6399 21.4406 11.9256C21.5488 12.2112 21.6029 12.5466 21.6029 12.9318C21.6029 13.2694 21.5597 13.581 21.4731 13.8667C21.3865 14.1523 21.2545 14.399 21.0771 14.6068C20.904 14.8145 20.6854 14.979 20.4214 15.1002C20.1617 15.217 19.8544 15.2754 19.4995 15.2754H17.5V10.6402Z" fill="#022C45"/>
<path d="M23.0325 13.6005C23.0325 13.7347 23.0455 13.8667 23.0715 13.9965C23.0975 14.122 23.1407 14.2367 23.2013 14.3406C23.2662 14.4401 23.3506 14.5202 23.4545 14.5808C23.5584 14.6414 23.6882 14.6717 23.844 14.6717C23.9998 14.6717 24.1297 14.6414 24.2336 14.5808C24.3418 14.5202 24.4261 14.4401 24.4867 14.3406C24.5517 14.2367 24.5971 14.122 24.6231 13.9965C24.649 13.8667 24.662 13.7347 24.662 13.6005C24.662 13.4663 24.649 13.3343 24.6231 13.2045C24.5971 13.0747 24.5517 12.96 24.4867 12.8604C24.4261 12.7609 24.3418 12.6808 24.2336 12.6202C24.1297 12.5553 23.9998 12.5228 23.844 12.5228C23.6882 12.5228 23.5584 12.5553 23.4545 12.6202C23.3506 12.6808 23.2662 12.7609 23.2013 12.8604C23.1407 12.96 23.0975 13.0747 23.0715 13.2045C23.0455 13.3343 23.0325 13.4663 23.0325 13.6005ZM22.1107 13.6005C22.1107 13.3322 22.1518 13.0898 22.234 12.8734C22.3163 12.6527 22.4331 12.4666 22.5846 12.3151C22.7361 12.1593 22.9178 12.0403 23.1299 11.958C23.342 11.8715 23.58 11.8282 23.844 11.8282C24.108 11.8282 24.3461 11.8715 24.5581 11.958C24.7745 12.0403 24.9585 12.1593 25.11 12.3151C25.2614 12.4666 25.3783 12.6527 25.4605 12.8734C25.5428 13.0898 25.5839 13.3322 25.5839 13.6005C25.5839 13.8688 25.5428 14.1112 25.4605 14.3276C25.3783 14.544 25.2614 14.7301 25.11 14.8859C24.9585 15.0374 24.7745 15.1543 24.5581 15.2365C24.3461 15.3187 24.108 15.3598 23.844 15.3598C23.58 15.3598 23.342 15.3187 23.1299 15.2365C22.9178 15.1543 22.7361 15.0374 22.5846 14.8859C22.4331 14.7301 22.3163 14.544 22.234 14.3276C22.1518 14.1112 22.1107 13.8688 22.1107 13.6005Z" fill="#022C45"/>
<path d="M26.1833 11.9191H27.0597V12.3865H27.0792C27.196 12.1918 27.3475 12.0511 27.5336 11.9645C27.7197 11.8736 27.9101 11.8282 28.1049 11.8282C28.3516 11.8282 28.5528 11.8628 28.7087 11.9321C28.8688 11.997 28.9943 12.09 29.0852 12.2112C29.1761 12.3281 29.2388 12.4731 29.2735 12.6462C29.3124 12.815 29.3319 13.0032 29.3319 13.211V15.2754H28.41V13.3798C28.41 13.1028 28.3667 12.8972 28.2802 12.763C28.1936 12.6245 28.04 12.5553 27.8193 12.5553C27.5682 12.5553 27.3865 12.631 27.2739 12.7825C27.1614 12.9297 27.1051 13.1742 27.1051 13.5161V15.2754H26.1833V11.9191Z" fill="#022C45"/>
<path d="M29.9926 12.9513C30.0056 12.7349 30.0597 12.5553 30.1549 12.4125C30.2501 12.2697 30.3713 12.155 30.5184 12.0684C30.6656 11.9818 30.8301 11.9213 31.0118 11.8866C31.1979 11.8477 31.384 11.8282 31.5701 11.8282C31.7389 11.8282 31.9099 11.8412 32.083 11.8672C32.2561 11.8888 32.4141 11.9342 32.5569 12.0035C32.6997 12.0727 32.8166 12.1701 32.9075 12.2956C32.9984 12.4168 33.0438 12.5791 33.0438 12.7825V14.5289C33.0438 14.6803 33.0525 14.8253 33.0698 14.9638C33.0871 15.1023 33.1174 15.2062 33.1607 15.2754H32.2258C32.2085 15.2235 32.1934 15.1716 32.1804 15.1196C32.1717 15.0634 32.1652 15.0071 32.1609 14.9508C32.0138 15.1023 31.8406 15.2084 31.6416 15.2689C31.4425 15.3295 31.2391 15.3598 31.0313 15.3598C30.8712 15.3598 30.7219 15.3404 30.5834 15.3014C30.4449 15.2625 30.3237 15.2019 30.2198 15.1196C30.1159 15.0374 30.0337 14.9335 29.9731 14.808C29.9169 14.6825 29.8887 14.5332 29.8887 14.3601C29.8887 14.1696 29.9212 14.0138 29.9861 13.8926C30.0554 13.7671 30.1419 13.6676 30.2458 13.594C30.354 13.5204 30.4752 13.4663 30.6093 13.4317C30.7478 13.3928 30.8863 13.3625 31.0248 13.3408C31.1633 13.3192 31.2996 13.3019 31.4338 13.2889C31.568 13.2759 31.687 13.2564 31.7909 13.2305C31.8947 13.2045 31.977 13.1677 32.0376 13.1201C32.0982 13.0682 32.1263 12.9946 32.122 12.8994C32.122 12.7998 32.1047 12.7219 32.07 12.6657C32.0397 12.6051 31.9965 12.5596 31.9402 12.5293C31.8883 12.4947 31.8255 12.4731 31.7519 12.4644C31.6827 12.4514 31.6069 12.4449 31.5247 12.4449C31.3429 12.4449 31.2001 12.4839 31.0962 12.5618C30.9924 12.6397 30.9318 12.7695 30.9145 12.9513H29.9926ZM32.122 13.633C32.083 13.6676 32.0332 13.6957 31.9726 13.7174C31.9164 13.7347 31.8536 13.7498 31.7844 13.7628C31.7195 13.7758 31.6502 13.7866 31.5766 13.7953C31.5031 13.8039 31.4295 13.8147 31.3559 13.8277C31.2867 13.8407 31.2174 13.858 31.1482 13.8797C31.0832 13.9013 31.0248 13.9316 30.9729 13.9706C30.9253 14.0052 30.8863 14.0506 30.856 14.1069C30.8257 14.1631 30.8106 14.2346 30.8106 14.3211C30.8106 14.4034 30.8257 14.4726 30.856 14.5289C30.8863 14.5851 30.9274 14.6306 30.9794 14.6652C31.0313 14.6955 31.0919 14.7171 31.1612 14.7301C31.2304 14.7431 31.3018 14.7496 31.3754 14.7496C31.5572 14.7496 31.6978 14.7193 31.7974 14.6587C31.8969 14.5981 31.9705 14.5267 32.0181 14.4445C32.0657 14.3579 32.0938 14.2713 32.1025 14.1848C32.1155 14.0982 32.122 14.029 32.122 13.977V13.633Z" fill="#022C45"/>
<path d="M34.9279 11.9191H35.6031V12.5358H34.9279V14.1978C34.9279 14.3536 34.9539 14.4575 35.0058 14.5094C35.0578 14.5613 35.1616 14.5873 35.3174 14.5873C35.3694 14.5873 35.4191 14.5851 35.4668 14.5808C35.5144 14.5765 35.5598 14.57 35.6031 14.5613V15.2754C35.5252 15.2884 35.4386 15.2971 35.3434 15.3014C35.2482 15.3057 35.1551 15.3079 35.0643 15.3079C34.9214 15.3079 34.7851 15.2971 34.6553 15.2754C34.5297 15.2581 34.4172 15.2213 34.3177 15.1651C34.2225 15.1088 34.1467 15.0287 34.0905 14.9249C34.0342 14.821 34.0061 14.6847 34.0061 14.5159V12.5358H33.4477V11.9191H34.0061V10.9128H34.9279V11.9191Z" fill="#022C45"/>
<path d="M38.3009 13.237C38.2576 13.0032 38.1797 12.8258 38.0672 12.7046C37.959 12.5834 37.7924 12.5228 37.5673 12.5228C37.4202 12.5228 37.2968 12.5488 37.1973 12.6007C37.1021 12.6484 37.0242 12.7089 36.9636 12.7825C36.9073 12.8561 36.8662 12.934 36.8402 13.0162C36.8186 13.0985 36.8056 13.172 36.8013 13.237H38.3009ZM36.8013 13.8212C36.8142 14.1199 36.89 14.3363 37.0285 14.4704C37.167 14.6046 37.3661 14.6717 37.6257 14.6717C37.8118 14.6717 37.972 14.6262 38.1061 14.5354C38.2403 14.4401 38.3225 14.3406 38.3528 14.2367H39.1643C39.0345 14.6392 38.8354 14.927 38.5671 15.1002C38.2987 15.2733 37.9741 15.3598 37.5933 15.3598C37.3293 15.3598 37.0912 15.3187 36.8792 15.2365C36.6671 15.1499 36.4875 15.0287 36.3403 14.8729C36.1932 14.7171 36.0785 14.531 35.9963 14.3146C35.9184 14.0982 35.8794 13.8602 35.8794 13.6005C35.8794 13.3495 35.9205 13.1158 36.0027 12.8994C36.085 12.683 36.2018 12.4969 36.3533 12.3411C36.5048 12.1809 36.6844 12.0554 36.8921 11.9645C37.1042 11.8736 37.3379 11.8282 37.5933 11.8282C37.8789 11.8282 38.1278 11.8845 38.3399 11.997C38.5519 12.1052 38.725 12.2523 38.8592 12.4384C38.9977 12.6245 39.0973 12.8366 39.1578 13.0747C39.2184 13.3127 39.2401 13.5616 39.2228 13.8212H36.8013Z" fill="#022C45"/>
<path d="M18.5192 34.8215H19.3113C19.4281 34.8215 19.5406 34.8128 19.6488 34.7955C19.757 34.7782 19.8523 34.7457 19.9345 34.6981C20.0167 34.6462 20.0816 34.5748 20.1293 34.4839C20.1812 34.393 20.2072 34.274 20.2072 34.1268C20.2072 33.9797 20.1812 33.8607 20.1293 33.7698C20.0816 33.6789 20.0167 33.6096 19.9345 33.562C19.8523 33.5101 19.757 33.4755 19.6488 33.4582C19.5406 33.4408 19.4281 33.4322 19.3113 33.4322H18.5192V34.8215ZM17.5 32.6402H19.5904C19.8804 32.6402 20.1271 32.6834 20.3305 32.77C20.5339 32.8522 20.6984 32.9626 20.8239 33.1011C20.9537 33.2396 21.0468 33.3976 21.103 33.575C21.1636 33.7525 21.1939 33.9364 21.1939 34.1268C21.1939 34.3129 21.1636 34.4969 21.103 34.6786C21.0468 34.8561 20.9537 35.0141 20.8239 35.1526C20.6984 35.2911 20.5339 35.4036 20.3305 35.4901C20.1271 35.5724 19.8804 35.6135 19.5904 35.6135H18.5192V37.2754H17.5V32.6402Z" fill="#022C45"/>
<path d="M21.6938 34.9513C21.7068 34.7349 21.7609 34.5553 21.8561 34.4125C21.9513 34.2697 22.0725 34.155 22.2196 34.0684C22.3668 33.9818 22.5312 33.9213 22.713 33.8866C22.8991 33.8477 23.0852 33.8282 23.2713 33.8282C23.4401 33.8282 23.6111 33.8412 23.7842 33.8672C23.9573 33.8888 24.1153 33.9342 24.2581 34.0035C24.4009 34.0727 24.5178 34.1701 24.6087 34.2956C24.6996 34.4168 24.745 34.5791 24.745 34.7825V36.5289C24.745 36.6803 24.7537 36.8253 24.771 36.9638C24.7883 37.1023 24.8186 37.2062 24.8619 37.2754H23.927C23.9097 37.2235 23.8945 37.1716 23.8816 37.1196C23.8729 37.0634 23.8664 37.0071 23.8621 36.9508C23.7149 37.1023 23.5418 37.2084 23.3427 37.2689C23.1436 37.3295 22.9402 37.3598 22.7325 37.3598C22.5723 37.3598 22.423 37.3404 22.2845 37.3014C22.146 37.2625 22.0249 37.2019 21.921 37.1196C21.8171 37.0374 21.7349 36.9335 21.6743 36.808C21.618 36.6825 21.5899 36.5332 21.5899 36.3601C21.5899 36.1696 21.6224 36.0138 21.6873 35.8926C21.7565 35.7671 21.8431 35.6676 21.947 35.594C22.0552 35.5204 22.1763 35.4663 22.3105 35.4317C22.449 35.3928 22.5875 35.3625 22.726 35.3408C22.8645 35.3192 23.0008 35.3019 23.135 35.2889C23.2692 35.2759 23.3882 35.2564 23.492 35.2305C23.5959 35.2045 23.6781 35.1677 23.7387 35.1201C23.7993 35.0682 23.8275 34.9946 23.8231 34.8994C23.8231 34.7998 23.8058 34.7219 23.7712 34.6657C23.7409 34.6051 23.6976 34.5596 23.6414 34.5293C23.5894 34.4947 23.5267 34.4731 23.4531 34.4644C23.3838 34.4514 23.3081 34.4449 23.2259 34.4449C23.0441 34.4449 22.9013 34.4839 22.7974 34.5618C22.6935 34.6397 22.6329 34.7695 22.6156 34.9513H21.6938ZM23.8231 35.633C23.7842 35.6676 23.7344 35.6957 23.6738 35.7174C23.6176 35.7347 23.5548 35.7498 23.4856 35.7628C23.4206 35.7758 23.3514 35.7866 23.2778 35.7953C23.2042 35.8039 23.1307 35.8147 23.0571 35.8277C22.9878 35.8407 22.9186 35.858 22.8493 35.8797C22.7844 35.9013 22.726 35.9316 22.6741 35.9706C22.6264 36.0052 22.5875 36.0506 22.5572 36.1069C22.5269 36.1631 22.5118 36.2346 22.5118 36.3211C22.5118 36.4034 22.5269 36.4726 22.5572 36.5289C22.5875 36.5851 22.6286 36.6306 22.6805 36.6652C22.7325 36.6955 22.7931 36.7171 22.8623 36.7301C22.9316 36.7431 23.003 36.7496 23.0766 36.7496C23.2583 36.7496 23.399 36.7193 23.4985 36.6587C23.5981 36.5981 23.6717 36.5267 23.7193 36.4445C23.7669 36.3579 23.795 36.2713 23.8037 36.1848C23.8166 36.0982 23.8231 36.029 23.8231 35.977V35.633Z" fill="#022C45"/>
<path d="M27.116 37.6909C27.0164 37.9636 26.8779 38.1583 26.7005 38.2752C26.5231 38.3921 26.2764 38.4505 25.9604 38.4505C25.8652 38.4505 25.77 38.4462 25.6748 38.4375C25.5839 38.4332 25.4908 38.4267 25.3956 38.418V37.6585C25.4822 37.6671 25.5709 37.6758 25.6618 37.6844C25.7527 37.6931 25.8436 37.6953 25.9344 37.6909C26.0556 37.6779 26.1444 37.6303 26.2006 37.5481C26.2612 37.4659 26.2915 37.375 26.2915 37.2754C26.2915 37.2019 26.2785 37.1326 26.2526 37.0677L25.0775 33.9191H26.0578L26.8174 36.2172H26.8303L27.5639 33.9191H28.5183L27.116 37.6909Z" fill="#022C45"/>
</svg>
