<svg width="100%" height="100%" viewBox="0 0 24 24" fill="none" xmlns="http://www.w3.org/2000/svg">
<path d="M5.3862 21.298C4.91377 21.298 4.51158 21.1321 4.17965 20.8001C3.84773 20.4682 3.68177 20.066 3.68177 19.5936V6.36602C3.68177 5.89357 3.84773 5.49139 4.17965 5.15947C4.51158 4.82754 4.91452 4.66157 5.38847 4.66157H6.87407V2.54617H8.31155V4.66157H15.7269V2.54617H17.1259V4.66157H18.6115C19.0855 4.66157 19.4884 4.82754 19.8203 5.15947C20.1523 5.49139 20.3182 5.89357 20.3182 6.36602V19.5936C20.3182 20.066 20.1523 20.4682 19.8203 20.8001C19.4884 21.1321 19.0862 21.298 18.6138 21.298H5.3862ZM5.38847 19.899H18.6115C18.6884 19.899 18.759 19.867 18.8231 19.8029C18.8872 19.7388 18.9192 19.6683 18.9192 19.5913V10.3481H5.08077V19.5913C5.08077 19.6683 5.11282 19.7388 5.17692 19.8029C5.24104 19.867 5.31156 19.899 5.38847 19.899ZM5.08077 8.9491H18.9192V6.3683C18.9192 6.29136 18.8872 6.22084 18.8231 6.15672C18.759 6.09262 18.6884 6.06057 18.6115 6.06057H5.38847C5.31156 6.06057 5.24104 6.09262 5.17692 6.15672C5.11282 6.22084 5.08077 6.29136 5.08077 6.3683V8.9491Z" fill="currentColor"/>
</svg>
