<svg width="24" height="24" viewBox="0 0 24 24" fill="none" xmlns="http://www.w3.org/2000/svg">
<path d="M21.298 6.38658V17.6134C21.298 18.0861 21.1321 18.4884 20.8001 18.8204C20.4682 19.1523 20.066 19.3182 19.5934 19.3182H4.40658C3.93403 19.3182 3.53178 19.1523 3.19985 18.8204C2.86792 18.4884 2.70195 18.0861 2.70195 17.6134V6.38658C2.70195 5.9139 2.86792 5.51159 3.19985 5.17965C3.53178 4.84774 3.93403 4.68178 4.40658 4.68178H19.5934C20.066 4.68178 20.4682 4.84774 20.8001 5.17965C21.1321 5.51159 21.298 5.9139 21.298 6.38658ZM4.10095 8.50483H19.899V6.38848C19.899 6.31156 19.867 6.24104 19.8029 6.17693C19.7388 6.11283 19.6683 6.08078 19.5913 6.08078H4.40868C4.33174 6.08078 4.26122 6.11283 4.19712 6.17693C4.13301 6.24104 4.10095 6.31156 4.10095 6.38848V8.50483ZM4.10095 11.5356V17.6115C4.10095 17.6884 4.13301 17.759 4.19712 17.8231C4.26122 17.8872 4.33174 17.9192 4.40868 17.9192H19.5913C19.6683 17.9192 19.7388 17.8872 19.8029 17.8231C19.867 17.759 19.899 17.6884 19.899 17.6115V11.5356H4.10095Z" fill="#E91675"/>
</svg>
