<svg width="24" height="24" viewBox="0 0 24 24" fill="none" xmlns="http://www.w3.org/2000/svg">
<path d="M5.3862 20.3182C4.91377 20.3182 4.51159 20.1523 4.17965 19.8204C3.84774 19.4884 3.68178 19.0862 3.68178 18.6138V5.3862C3.68178 4.91377 3.84774 4.51159 4.17965 4.17965C4.51159 3.84774 4.91377 3.68178 5.3862 3.68178H18.6138C19.0862 3.68178 19.4884 3.84774 19.8204 4.17965C20.1523 4.51159 20.3182 4.91377 20.3182 5.3862V18.6138C20.3182 19.0862 20.1523 19.4884 19.8204 19.8204C19.4884 20.1523 19.0862 20.3182 18.6138 20.3182H5.3862ZM5.38848 18.9192H18.6115C18.6884 18.9192 18.759 18.8872 18.8231 18.8231C18.8872 18.759 18.9192 18.6884 18.9192 18.6115V5.38848C18.9192 5.31156 18.8872 5.24105 18.8231 5.17693C18.759 5.11283 18.6884 5.08078 18.6115 5.08078H5.38848C5.31156 5.08078 5.24104 5.11283 5.17693 5.17693C5.11283 5.24105 5.08078 5.31156 5.08078 5.38848V18.6115C5.08078 18.6884 5.11283 18.759 5.17693 18.8231C5.24104 18.8872 5.31156 18.9192 5.38848 18.9192Z" fill="#E91675"/>
</svg>
