<svg width="100%" height="100%" viewBox="0 0 24 24" fill="none" xmlns="http://www.w3.org/2000/svg">
<path d="M12 17.5134C10.9641 17.5134 9.96666 17.6934 9.00768 18.0533C8.04869 18.4133 7.15798 18.9574 6.33553 19.6858V19.8413C6.36118 19.8606 6.38682 19.875 6.41245 19.8846C6.4381 19.8942 6.46695 19.899 6.499 19.899H17.4818C17.5138 19.899 17.5411 19.8942 17.5635 19.8846C17.5859 19.875 17.61 19.8606 17.6356 19.8413V19.7077C16.8395 18.975 15.9614 18.4261 15.0016 18.061C14.0417 17.696 13.0412 17.5134 12 17.5134ZM5.08078 18.924C5.97173 18.0532 7.00706 17.3673 8.18678 16.8661C9.36648 16.365 10.6373 16.1144 11.9993 16.1144C13.3613 16.1144 14.6323 16.365 15.8124 16.8661C16.9924 17.3673 18.028 18.0532 18.9192 18.924V6.3683C18.9192 6.29137 18.8872 6.22084 18.8231 6.15672C18.759 6.09262 18.6884 6.06057 18.6115 6.06057H5.38848C5.31156 6.06057 5.24104 6.09262 5.17693 6.15672C5.11283 6.22084 5.08078 6.29137 5.08078 6.3683V18.924ZM11.9972 13.6692C11.1183 13.6692 10.3708 13.3603 9.75483 12.7424C9.13879 12.1245 8.83078 11.3761 8.83078 10.4972C8.83078 9.61831 9.13972 8.87084 9.7576 8.25482C10.3755 7.63879 11.1239 7.33077 12.0028 7.33077C12.8817 7.33077 13.6292 7.63972 14.2452 8.2576C14.8612 8.87547 15.1692 9.62386 15.1692 10.5028C15.1692 11.3817 14.8603 12.1292 14.2424 12.7452C13.6245 13.3612 12.8761 13.6692 11.9972 13.6692ZM12.0015 12.2702C12.4883 12.2702 12.9047 12.0966 13.2509 11.7495C13.5971 11.4023 13.7702 10.9853 13.7702 10.4985C13.7702 10.0117 13.5966 9.59526 13.2495 9.24907C12.9023 8.90289 12.4853 8.7298 11.9985 8.7298C11.5117 8.7298 11.0953 8.90337 10.7491 9.25052C10.4029 9.59769 10.2298 10.0147 10.2298 10.5015C10.2298 10.9883 10.4034 11.4047 10.7505 11.7509C11.0977 12.0971 11.5147 12.2702 12.0015 12.2702ZM5.3862 21.298C4.91377 21.298 4.51159 21.1321 4.17965 20.8001C3.84774 20.4682 3.68178 20.066 3.68178 19.5936V6.36602C3.68178 5.89357 3.84774 5.49139 4.17965 5.15947C4.51159 4.82754 4.91453 4.66157 5.38848 4.66157H6.87408V2.54617H8.31155V4.66157H15.7269V2.54617H17.1259V4.66157H18.6115C19.0855 4.66157 19.4884 4.82754 19.8204 5.15947C20.1523 5.49139 20.3182 5.89357 20.3182 6.36602V19.5936C20.3182 20.066 20.1523 20.4682 19.8204 20.8001C19.4884 21.1321 19.0862 21.298 18.6138 21.298H5.3862ZM12 19.899H17.6356H6.33553H12Z" fill="CurrentColor"/>
</svg>
