<svg width="100%" height="100%" viewBox="0 0 24 24" fill="none" xmlns="http://www.w3.org/2000/svg">
<path d="M5.91148 21.025C5.4376 21.025 5.0347 20.859 4.70278 20.5271C4.37085 20.1951 4.20488 19.7924 4.20488 19.3188V6.9164H5.60388V19.3182C5.60388 19.3952 5.63593 19.4657 5.70003 19.5298C5.76415 19.5939 5.83467 19.626 5.9116 19.626H15.3413V21.025H5.91148ZM9.20781 17.7269C8.73507 17.7269 8.33274 17.5609 8.0008 17.229C7.66889 16.8971 7.50293 16.4948 7.50293 16.0221V4.79525C7.50293 4.32257 7.66889 3.92026 8.0008 3.58833C8.33274 3.25641 8.73507 3.09045 9.20781 3.09045H17.4874C17.9601 3.09045 18.3624 3.25641 18.6944 3.58833C19.0263 3.92026 19.1923 4.32257 19.1923 4.79525V16.0221C19.1923 16.4948 19.0263 16.8971 18.6944 17.229C18.3624 17.5609 17.9601 17.7269 17.4874 17.7269H9.20781ZM9.20963 16.3279H17.4856C17.5625 16.3279 17.633 16.2959 17.6971 16.2318C17.7612 16.1676 17.7933 16.0971 17.7933 16.0202V4.79715C17.7933 4.72024 17.7612 4.64972 17.6971 4.5856C17.633 4.5215 17.5625 4.48945 17.4856 4.48945H9.20963C9.13271 4.48945 9.0622 4.5215 8.99808 4.5856C8.93398 4.64972 8.90193 4.72024 8.90193 4.79715V16.0202C8.90193 16.0971 8.93398 16.1676 8.99808 16.2318C9.0622 16.2959 9.13271 16.3279 9.20963 16.3279Z" fill="currentColor"/>
</svg>
