<svg width="100%" height="100%" viewBox="0 0 24 24" fill="none" xmlns="http://www.w3.org/2000/svg">
<path d="M8.34328 17.5884H15.6692V16.1895H8.34328V17.5884ZM8.34328 13.6288H15.6692V12.2298H8.34328V13.6288ZM6.38658 21.298C5.91389 21.298 5.51159 21.1321 5.17965 20.8001C4.84774 20.4682 4.68178 20.066 4.68178 19.5934V4.40658C4.68178 3.93403 4.84774 3.53178 5.17965 3.19985C5.51159 2.86792 5.91453 2.70195 6.38848 2.70195H14.25L19.3182 7.75768V19.5913C19.3182 20.0653 19.1523 20.4682 18.8204 20.8001C18.4884 21.1321 18.0861 21.298 17.6134 21.298H6.38658ZM13.5606 8.45958V4.10095H6.38848C6.31156 4.10095 6.24104 4.13301 6.17693 4.19713C6.11283 4.26123 6.08078 4.33174 6.08078 4.40867V19.5913C6.08078 19.6683 6.11283 19.7388 6.17693 19.8029C6.24104 19.867 6.31156 19.8991 6.38848 19.8991H17.6115C17.6884 19.8991 17.759 19.867 17.8231 19.8029C17.8872 19.7388 17.9192 19.6683 17.9192 19.5913V8.45958H13.5606Z" fill="currentColor"/>
</svg>
