<svg width="100%" height="100%" viewBox="0 0 24 24" fill="none" xmlns="http://www.w3.org/2000/svg">
<path d="M11.999 15.2183C11.8846 15.2183 11.7788 15.199 11.6815 15.1606C11.5842 15.1221 11.493 15.0586 11.4077 14.9702L8.39503 11.9575C8.25928 11.8249 8.19059 11.6632 8.18898 11.4722C8.18738 11.2811 8.25484 11.1173 8.39138 10.9808C8.52471 10.8443 8.68657 10.7755 8.87695 10.7746C9.06734 10.7736 9.23079 10.8398 9.36733 10.9731L11.3029 12.9087V5.23848C11.3029 5.04424 11.3705 4.8787 11.5058 4.74185C11.641 4.60499 11.8058 4.53655 12 4.53655C12.1942 4.53655 12.3598 4.60499 12.4966 4.74185C12.6335 4.8787 12.7019 5.04424 12.7019 5.23848V12.9087L14.6327 10.9731C14.7628 10.843 14.9247 10.7776 15.1183 10.777C15.3118 10.7763 15.4769 10.8443 15.6134 10.9808C15.7468 11.1173 15.8134 11.2795 15.8134 11.4673C15.8134 11.6551 15.7456 11.8185 15.6098 11.9575L12.5923 14.9702C12.5057 15.0586 12.4138 15.1221 12.3165 15.1606C12.2192 15.199 12.1134 15.2183 11.999 15.2183ZM6.38848 19.225C5.91453 19.225 5.51159 19.0598 5.17965 18.7295C4.84774 18.3992 4.68178 17.9954 4.68178 17.5183V15.5683C4.68178 15.374 4.7502 15.2085 4.88705 15.0716C5.0239 14.9348 5.18944 14.8664 5.38368 14.8664C5.57469 14.8664 5.73863 14.9348 5.87548 15.0716C6.01234 15.2085 6.08078 15.374 6.08078 15.5683V17.5183C6.08078 17.5984 6.11283 17.6697 6.17693 17.7322C6.24104 17.7947 6.31156 17.826 6.38848 17.826H17.6115C17.6884 17.826 17.759 17.7947 17.8231 17.7322C17.8872 17.6697 17.9192 17.5984 17.9192 17.5183V15.5683C17.9192 15.374 17.9877 15.2085 18.1245 15.0716C18.2614 14.9348 18.4269 14.8664 18.6212 14.8664C18.8122 14.8664 18.9761 14.9348 19.113 15.0716C19.2498 15.2085 19.3182 15.374 19.3182 15.5683V17.5183C19.3182 17.9954 19.1523 18.3992 18.8204 18.7295C18.4884 19.0598 18.0855 19.225 17.6115 19.225H6.38848Z" fill="currentColor"/>
</svg>
