<svg width="100%" height="100%" viewBox="0 0 24 24" fill="none" xmlns="http://www.w3.org/2000/svg">
<path d="M2.12115 21.7846V18.9866H21.8789V21.7846H2.12115V21.7846ZM4.52023 16.5875V13.6914L13.3866 4.87696L16.2913 7.77404L7.4971 16.5875H4.52023ZM5.91923 15.1885H6.8798L14.3173 7.77164L13.3866 6.84326L5.91923 14.3087V15.1885ZM17.2125 6.76443L14.3356 3.90679L15.7279 2.49431C15.908 2.30584 16.1332 2.21289 16.4034 2.21546C16.6736 2.21803 16.9019 2.31098 17.0885 2.49431L18.5855 4.01156C18.7657 4.19281 18.8589 4.41777 18.8653 4.68643C18.8717 4.9551 18.7849 5.18367 18.6048 5.37214L17.2125 6.76443Z" fill="currentColor"/>
</svg>
