<svg width="24" height="24" viewBox="0 0 24 24" fill="none" xmlns="http://www.w3.org/2000/svg">
<rect x="0.5" y="0.5" width="23" height="23" rx="7.5" fill="white"/>
<path d="M5.98838 13.4596C5.58423 13.4596 5.23993 13.3173 4.95548 13.0329C4.67103 12.7484 4.52881 12.4041 4.52881 12C4.52881 11.5958 4.67103 11.2515 4.95548 10.9671C5.23993 10.6826 5.58423 10.5404 5.98838 10.5404C6.39255 10.5404 6.73686 10.6826 7.02131 10.9671C7.30574 11.2515 7.44796 11.5958 7.44796 12C7.44796 12.4041 7.30574 12.7484 7.02131 13.0329C6.73686 13.3173 6.39255 13.4596 5.98838 13.4596ZM11.9999 13.4596C11.5958 13.4596 11.2515 13.3173 10.967 13.0329C10.6826 12.7484 10.5403 12.4041 10.5403 12C10.5403 11.5958 10.6826 11.2515 10.967 10.9671C11.2515 10.6826 11.5958 10.5404 11.9999 10.5404C12.4041 10.5404 12.7484 10.6826 13.0328 10.9671C13.3173 11.2515 13.4595 11.5958 13.4595 12C13.4595 12.4041 13.3173 12.7484 13.0328 13.0329C12.7484 13.3173 12.4041 13.4596 11.9999 13.4596ZM18.0114 13.4596C17.6073 13.4596 17.263 13.3173 16.9785 13.0329C16.6941 12.7484 16.5519 12.4041 16.5519 12C16.5519 11.5958 16.6941 11.2515 16.9785 10.9671C17.263 10.6826 17.6073 10.5404 18.0114 10.5404C18.4156 10.5404 18.7599 10.6826 19.0443 10.9671C19.3288 11.2515 19.471 11.5958 19.471 12C19.471 12.4041 19.3288 12.7484 19.0443 13.0329C18.7599 13.3173 18.4156 13.4596 18.0114 13.4596Z" fill="#35566A"/>
<rect x="0.5" y="0.5" width="23" height="23" rx="7.5" stroke="#CCD5DA"/>
</svg>
