<svg width="100%" height="100%" viewBox="0 0 144 144" fill="none" xmlns="http://www.w3.org/2000/svg">
<circle cx="72" cy="72.0002" r="72" fill="#FDE8F1"/>
<circle cx="72.0008" cy="72.0002" r="45.5985" fill="white"/>
<circle cx="72" cy="72.0002" r="57.6" stroke="#E91649" stroke-width="1.8"/>
<path d="M72.0096 110.399C66.6993 110.399 61.7069 109.389 57.0325 107.371C52.358 105.353 48.2919 102.614 44.834 99.1534C41.3762 95.6934 38.6397 91.6306 36.6244 86.965C34.6092 82.2994 33.6016 77.3143 33.6016 72.0097C33.6016 66.6994 34.6108 61.707 36.6292 57.0326C38.6475 52.3581 41.3867 48.292 44.8468 44.8342C48.3069 41.3763 52.3697 38.6398 57.0352 36.6245C61.7008 34.6093 66.6859 33.6017 71.9906 33.6017C77.3009 33.6017 82.2932 34.6109 86.9677 36.6293C91.6421 38.6476 95.7083 41.3869 99.1661 44.847C102.624 48.307 105.36 52.3698 107.376 57.0354C109.391 61.7009 110.399 66.686 110.399 71.9907C110.399 77.301 109.389 82.2934 107.371 86.9678C105.353 91.6422 102.613 95.7084 99.1533 99.1662C95.6933 102.624 91.6305 105.361 86.9649 107.376C82.2993 109.391 77.3142 110.399 72.0096 110.399Z" fill="#FDE8F1"/>
<path d="M68.6703 54.6045C68.6703 52.792 70.1397 51.3226 71.9522 51.3226C73.7648 51.3226 75.2341 52.792 75.2341 54.6045L75.2341 74.4499C75.2341 76.2625 73.7648 77.7318 71.9522 77.7318C70.1397 77.7318 68.6703 76.2625 68.6703 74.4499L68.6703 54.6045Z" fill="#E91675"/>
<path d="M69.4305 86.4962C70.1177 85.8172 70.9782 85.4777 72.0119 85.4777C73.0458 85.4777 73.9022 85.8213 74.5811 86.5085C75.2601 87.1958 75.5996 88.0563 75.5996 89.09C75.5996 90.1238 75.256 90.9802 74.5687 91.6591C73.8815 92.3382 73.021 92.6777 71.9873 92.6777C70.9535 92.6777 70.0971 92.3341 69.4181 91.6468C68.7391 90.9596 68.3996 90.0991 68.3996 89.0653C68.3996 88.0315 68.7432 87.1752 69.4305 86.4962Z" fill="#E91675"/>
</svg>
