<svg width="24" height="24" viewBox="0 0 24 24" fill="none" xmlns="http://www.w3.org/2000/svg">
<path d="M5.2404 15.4856C4.9513 14.9413 4.73415 14.3791 4.58895 13.799C4.44377 13.2189 4.37117 12.6292 4.37117 12.0298C4.37117 9.90225 5.11156 8.09393 6.59232 6.60483C8.07309 5.11573 9.88238 4.37118 12.0202 4.37118H12.8616L10.9914 2.50095L11.9846 1.50773L15.5375 5.08078L11.9846 8.63363L10.9914 7.64038L12.8616 5.77018H12.0202C10.2779 5.77018 8.80063 6.37707 7.58845 7.59085C6.37627 8.80464 5.77017 10.2843 5.77017 12.0298C5.77017 12.4388 5.812 12.8446 5.89565 13.2471C5.9793 13.6497 6.10895 14.0478 6.2846 14.4414L5.2404 15.4856ZM12.0154 22.4519L8.46252 18.8789L12.0154 15.326L13.0086 16.3192L11.1384 18.1895H11.9798C13.7221 18.1895 15.1994 17.5826 16.4115 16.3688C17.6237 15.155 18.2298 13.6753 18.2298 11.9298C18.2298 11.5208 18.188 11.1151 18.1044 10.7125C18.0207 10.3099 17.8927 9.91186 17.7202 9.51828L18.7644 8.47408C19.0503 9.0183 19.2659 9.58047 19.411 10.1606C19.5562 10.7407 19.6288 11.3305 19.6288 11.9298C19.6288 14.0574 18.8884 15.8657 17.4077 17.3548C15.9269 18.8439 14.1176 19.5885 11.9798 19.5885H11.1384L13.0086 21.4587L12.0154 22.4519Z" fill="#E91675"/>
</svg>
