<svg width="100%" height="100%" viewBox="0 0 24 24" fill="none" xmlns="http://www.w3.org/2000/svg">
<path d="M12.0083 17.474C12.2766 17.474 12.5036 17.3814 12.6891 17.1961C12.8746 17.0108 12.9673 16.784 12.9673 16.5157C12.9673 16.2474 12.8747 16.0205 12.6894 15.835C12.5041 15.6495 12.2773 15.5567 12.009 15.5567C11.7407 15.5567 11.5138 15.6494 11.3283 15.8347C11.1428 16.0199 11.05 16.2467 11.05 16.515C11.05 16.7834 11.1427 17.0103 11.3279 17.1958C11.5132 17.3813 11.74 17.474 12.0083 17.474ZM11.3212 13.9942H12.6481C12.6609 13.5205 12.7351 13.1399 12.8707 12.8524C13.0062 12.5649 13.3163 12.1824 13.801 11.7048C14.2407 11.2785 14.5708 10.8802 14.7913 10.5097C15.0118 10.1392 15.1221 9.71128 15.1221 9.22595C15.1221 8.38408 14.825 7.72682 14.2309 7.25417C13.6368 6.78154 12.928 6.54523 12.1046 6.54523C11.2918 6.54523 10.6195 6.75945 10.0878 7.1879C9.55597 7.61633 9.17287 8.12261 8.93848 8.70672L10.1668 9.18172C10.2857 8.84967 10.4914 8.53301 10.7838 8.23172C11.0761 7.93044 11.5085 7.7798 12.0808 7.7798C12.6718 7.7798 13.1087 7.94167 13.3913 8.2654C13.6741 8.58912 13.8154 8.94521 13.8154 9.33367C13.8154 9.67432 13.7202 9.98191 13.5299 10.2564C13.3395 10.5309 13.0979 10.8 12.8048 11.0635C12.1702 11.6372 11.7643 12.1016 11.587 12.4567C11.4098 12.8119 11.3212 13.3244 11.3212 13.9942ZM12.0023 21.298C10.7164 21.298 9.50755 21.0537 8.37565 20.5649C7.24375 20.0762 6.25915 19.4129 5.42185 18.5751C4.58455 17.7372 3.92191 16.7534 3.43392 15.6237C2.94594 14.4939 2.70195 13.2868 2.70195 12.0023C2.70195 10.7164 2.94633 9.50755 3.43507 8.37565C3.92381 7.24375 4.5871 6.25915 5.42495 5.42185C6.26278 4.58455 7.24658 3.92191 8.37633 3.43392C9.50608 2.94594 10.7132 2.70195 11.9977 2.70195C13.2836 2.70195 14.4924 2.94633 15.6244 3.43508C16.7563 3.92381 17.7408 4.5871 18.5781 5.42495C19.4154 6.26278 20.0781 7.24657 20.5661 8.37632C21.0541 9.50607 21.298 10.7132 21.298 11.9977C21.298 13.2836 21.0537 14.4924 20.5649 15.6244C20.0762 16.7563 19.4129 17.7408 18.5751 18.5781C17.7372 19.4154 16.7534 20.0781 15.6237 20.5661C14.4939 21.0541 13.2868 21.298 12.0023 21.298ZM11.9997 19.8991C14.198 19.8991 16.0641 19.1322 17.5981 17.5984C19.1321 16.0646 19.899 14.1986 19.899 12.0003C19.899 9.80203 19.1322 7.93589 17.5984 6.40193C16.0646 4.86794 14.1986 4.10095 12.0003 4.10095C9.80203 4.10095 7.93589 4.86783 6.40192 6.4016C4.86794 7.93537 4.10095 9.80139 4.10095 11.9997C4.10095 14.198 4.86783 16.0641 6.4016 17.5981C7.93537 19.1321 9.80139 19.8991 11.9997 19.8991Z" fill="currentColor"/>
</svg>
