<svg width="100%" height="100%" viewBox="0 0 24 24" fill="none" xmlns="http://www.w3.org/2000/svg">
<path d="M11.3106 16.649H12.7096V11.0202H11.3106V16.649ZM11.9974 9.36925C12.2177 9.36925 12.4011 9.29689 12.5476 9.15218C12.694 9.00746 12.7673 8.82493 12.7673 8.6046C12.7673 8.38425 12.6949 8.20084 12.5502 8.05437C12.4055 7.90789 12.223 7.83465 12.0026 7.83465C11.7823 7.83465 11.5989 7.90702 11.4524 8.05175C11.3059 8.19647 11.2327 8.37899 11.2327 8.59932C11.2327 8.81966 11.305 9.00307 11.4498 9.14955C11.5945 9.29602 11.777 9.36925 11.9974 9.36925ZM12.0023 21.298C10.7164 21.298 9.50753 21.0537 8.37563 20.5649C7.24373 20.0762 6.25913 19.4129 5.42183 18.5751C4.58453 17.7372 3.92189 16.7534 3.43391 15.6237C2.94593 14.4939 2.70193 13.2868 2.70193 12.0023C2.70193 10.7164 2.94631 9.50755 3.43506 8.37565C3.92379 7.24375 4.58708 6.25915 5.42493 5.42185C6.26277 4.58455 7.24656 3.92191 8.37631 3.43392C9.50606 2.94594 10.7132 2.70195 11.9977 2.70195C13.2836 2.70195 14.4924 2.94633 15.6243 3.43507C16.7562 3.92381 17.7408 4.5871 18.5781 5.42495C19.4154 6.26278 20.0781 7.24658 20.5661 8.37633C21.054 9.50608 21.298 10.7132 21.298 11.9977C21.298 13.2836 21.0537 14.4924 20.5649 15.6244C20.0762 16.7563 19.4129 17.7408 18.575 18.5781C17.7372 19.4154 16.7534 20.0781 15.6237 20.5661C14.4939 21.0541 13.2868 21.298 12.0023 21.298ZM11.9997 19.899C14.198 19.899 16.0641 19.1322 17.5981 17.5984C19.132 16.0646 19.899 14.1986 19.899 12.0003C19.899 9.80203 19.1322 7.93589 17.5984 6.40192C16.0646 4.86794 14.1986 4.10095 12.0003 4.10095C9.80201 4.10095 7.93588 4.86783 6.40191 6.4016C4.86793 7.93537 4.10093 9.80139 4.10093 11.9997C4.10093 14.198 4.86782 16.0641 6.40158 17.5981C7.93535 19.1321 9.80138 19.899 11.9997 19.899Z" fill="currentColor"/>
</svg>
