<svg width="100%" height="100%" viewBox="0 0 48 48" fill="none" xmlns="http://www.w3.org/2000/svg">
<path d="M6 7H42V15C42 17.2091 40.2091 19 38 19H10C7.79086 19 6 17.2091 6 15V7Z" fill="#FBD0E3" stroke="#022C45" stroke-width="1.5" stroke-linejoin="round"/>
<path d="M14 13H34V39C34 40.1046 33.1046 41 32 41H16C14.8954 41 14 40.1046 14 39V13Z" fill="#FFF0F7"/>
<path d="M14 13H34H14ZM34.75 39C34.75 40.5188 33.5188 41.75 32 41.75H16C14.4812 41.75 13.25 40.5188 13.25 39H14.75C14.75 39.6904 15.3096 40.25 16 40.25H32C32.6904 40.25 33.25 39.6904 33.25 39H34.75ZM16 41.75C14.4812 41.75 13.25 40.5188 13.25 39V13H14.75V39C14.75 39.6904 15.3096 40.25 16 40.25V41.75ZM34.75 13V39C34.75 40.5188 33.5188 41.75 32 41.75V40.25C32.6904 40.25 33.25 39.6904 33.25 39V13H34.75Z" fill="#022C45"/>
<path d="M18 13H11" stroke="#022C45" stroke-width="1.5" stroke-linecap="round"/>
<path d="M37 13L22 13" stroke="#022C45" stroke-width="1.5" stroke-linecap="round"/>
<path d="M24 34C20.134 34 17 30.866 17 27C17 23.134 20.134 20 24 20C27.866 20 31 23.134 31 27M29.9347 23.2879C31.3909 25.616 31.3107 28.4695 29.9675 30.6621C29.4196 31.5564 28.6617 32.3407 27.7121 32.9347" stroke="#022C45" stroke-width="1.5" stroke-linecap="round"/>
<path d="M26.9843 26.2162C27.1092 25.3755 26.4738 24.9236 25.605 24.6222L25.8868 23.4835L25.1987 23.3107L24.9243 24.4194C24.7434 24.374 24.5576 24.3312 24.373 24.2888L24.6493 23.1727L23.9616 23L23.6796 24.1383C23.5298 24.104 23.3828 24.07 23.2401 24.0343L23.2409 24.0307L22.292 23.792L22.1089 24.5324C22.1089 24.5324 22.6195 24.6502 22.6087 24.6575C22.8874 24.7276 22.9377 24.9134 22.9293 25.0607L22.6083 26.3579C22.6275 26.3628 22.6524 26.3699 22.6798 26.381C22.6569 26.3753 22.6324 26.3689 22.6071 26.3628L22.1571 28.1801C22.123 28.2654 22.0366 28.3933 21.8418 28.3447C21.8486 28.3548 21.3416 28.219 21.3416 28.219L21 29.0124L21.8955 29.2372C22.0621 29.2793 22.2253 29.3233 22.386 29.3648L22.1013 30.5165L22.7886 30.6893L23.0706 29.5498C23.2584 29.6011 23.4406 29.6485 23.619 29.6931L23.338 30.8273L24.0261 31L24.3108 29.8504C25.4842 30.0741 26.3666 29.9839 26.738 28.9149C27.0372 28.0541 26.7231 27.5576 26.1057 27.2338C26.5553 27.1294 26.894 26.8315 26.9843 26.2162ZM25.4121 28.4369C25.1994 29.2977 23.7607 28.8323 23.2942 28.7157L23.6721 27.1898C24.1386 27.3071 25.6343 27.5392 25.4121 28.4369ZM25.6249 26.2037C25.4309 26.9867 24.2334 26.5889 23.845 26.4913L24.1876 25.1074C24.576 25.205 25.827 25.387 25.6249 26.2037Z" fill="#E91675"/>
</svg>
