<svg width="100%" height="100%" viewBox="0 0 48 48" fill="none" xmlns="http://www.w3.org/2000/svg">
<path d="M24.5 28H11.5C9.29086 28 7.5 29.7909 7.5 32V34" stroke="#022C45" stroke-width="1.5" stroke-linecap="round"/>
<path d="M24.5 28H36.5C38.7091 28 40.5 29.7909 40.5 32V34" stroke="#022C45" stroke-width="1.5" stroke-linecap="round"/>
<ellipse cx="24" cy="39.73" rx="3.5" ry="3.5" fill="#E91675"/>
<ellipse cx="40.5" cy="39.73" rx="3.5" ry="3.5" fill="#E91675"/>
<ellipse cx="7.5" cy="39.73" rx="3.5" ry="3.5" fill="#E91675"/>
<path d="M24 23L24 34" stroke="#022C45" stroke-width="1.5" stroke-linecap="round"/>
<path d="M17.8787 20.5001C13.535 20.5001 10.0137 16.9788 10.0137 12.6351C10.0137 8.29132 13.535 4.77002 17.8787 4.77002C22.2225 4.77002 25.7438 8.29132 25.7438 12.6351M24.5468 8.4642C26.183 11.08 26.0929 14.2861 24.5836 16.7497C23.9681 17.7545 23.1165 18.6358 22.0496 19.3031" stroke="#022C45" stroke-width="1.5" stroke-linecap="round"/>
<path d="M21.2317 11.7542C21.3719 10.8097 20.658 10.302 19.6818 9.96329L19.9985 8.68385L19.2253 8.48976L18.9171 9.73548C18.7138 9.68446 18.505 9.63633 18.2976 9.58864L18.6081 8.33471L17.8354 8.14062L17.5185 9.41961C17.3503 9.38102 17.1851 9.34287 17.0248 9.30272L17.0257 9.29873L15.9594 9.03055L15.7538 9.86236C15.7538 9.86236 16.3274 9.99478 16.3153 10.003C16.6284 10.0817 16.685 10.2905 16.6755 10.4559L16.3148 11.9135C16.3364 11.919 16.3644 11.927 16.3952 11.9394C16.3695 11.933 16.3419 11.9259 16.3135 11.919L15.8079 13.9608C15.7696 14.0567 15.6725 14.2004 15.4536 14.1458C15.4613 14.1571 14.8916 14.0045 14.8916 14.0045L14.5078 14.896L15.5139 15.1487C15.7011 15.1959 15.8846 15.2454 16.0651 15.292L15.7452 16.586L16.5174 16.7801L16.8343 15.4998C17.0453 15.5575 17.2501 15.6107 17.4505 15.6608L17.1347 16.9352L17.9078 17.1293L18.2278 15.8376C19.5462 16.0889 20.5376 15.9876 20.9549 14.7864C21.2911 13.8193 20.9381 13.2615 20.2445 12.8977C20.7496 12.7803 21.1302 12.4456 21.2317 11.7542ZM19.4652 14.2494C19.2262 15.2165 17.6097 14.6937 17.0856 14.5626L17.5101 12.8482C18.0342 12.98 19.7149 13.2408 19.4652 14.2494ZM19.7043 11.7402C19.4863 12.62 18.1408 12.173 17.7044 12.0634L18.0893 10.5085C18.5257 10.6181 19.9313 10.8226 19.7043 11.7402Z" fill="#E91675"/>
<path d="M28.7593 14.0682H27.3633C27.4293 14.8471 27.6702 15.4378 28.0861 15.8405C28.5019 16.2431 29.0795 16.4708 29.8187 16.5237V17.3652H30.4029V16.5237C30.8979 16.4906 31.3039 16.3916 31.6207 16.2266C31.9375 16.0616 32.1884 15.8735 32.3732 15.6623C32.5646 15.451 32.6966 15.2365 32.7692 15.0187C32.8418 14.7943 32.8781 14.6095 32.8781 14.4642C32.8781 14.2992 32.8649 14.1111 32.8385 13.8999C32.8187 13.6887 32.7461 13.4774 32.6207 13.2662C32.4953 13.055 32.3006 12.8537 32.0365 12.6623C31.7725 12.4642 31.3963 12.2992 30.9078 12.1672C30.8154 12.1408 30.7263 12.1177 30.6405 12.0979C30.5613 12.0781 30.4821 12.0583 30.4029 12.0385V10.286C30.6273 10.286 30.8187 10.3784 30.9771 10.5633C31.1356 10.7481 31.2181 10.9725 31.2247 11.2365H32.6306C32.6108 10.8933 32.5382 10.5963 32.4128 10.3454C32.2874 10.0946 32.1257 9.88669 31.9276 9.72167C31.7296 9.55005 31.4986 9.41804 31.2346 9.32563C30.9771 9.22662 30.6999 9.16061 30.4029 9.12761V8.36523H29.8187V9.12761C29.5217 9.14741 29.2346 9.20682 28.9573 9.30583C28.6801 9.39824 28.4359 9.53355 28.2247 9.71177C28.0134 9.88339 27.8418 10.0979 27.7098 10.3553C27.5844 10.6128 27.5217 10.9098 27.5217 11.2464C27.5217 11.5765 27.5778 11.8537 27.69 12.0781C27.8022 12.2959 27.9507 12.4807 28.1356 12.6326C28.327 12.7778 28.5415 12.8966 28.7791 12.989C29.0167 13.0748 29.2577 13.1507 29.5019 13.2167C29.5679 13.2299 29.6273 13.2464 29.6801 13.2662C29.7395 13.2794 29.7857 13.2926 29.8187 13.3058V15.3751C29.5151 15.3157 29.261 15.1771 29.0564 14.9593C28.8517 14.7415 28.7527 14.4444 28.7593 14.0682ZM30.4029 15.3751V13.4741C30.7923 13.5798 31.0663 13.6986 31.2247 13.8306C31.3897 13.956 31.4722 14.1474 31.4722 14.4048C31.4722 14.5633 31.4392 14.7019 31.3732 14.8207C31.3072 14.9329 31.2214 15.0286 31.1158 15.1078C31.0167 15.187 30.9012 15.2497 30.7692 15.2959C30.6438 15.3355 30.5217 15.3619 30.4029 15.3751ZM29.8187 10.286V11.8999C29.5019 11.8273 29.2742 11.7316 29.1356 11.6128C28.9969 11.4939 28.9276 11.3256 28.9276 11.1078C28.9276 10.9692 28.9507 10.8504 28.9969 10.7514C29.0498 10.6458 29.1191 10.56 29.2049 10.4939C29.2907 10.4213 29.3864 10.3685 29.492 10.3355C29.5976 10.3025 29.7065 10.286 29.8187 10.286Z" fill="#E91675"/>
<path d="M30.1203 20.4996C34.464 20.4996 37.9854 16.9783 37.9854 12.6346C37.9854 8.29083 34.464 4.76953 30.1203 4.76953C29.0116 4.76953 27.9564 4.99895 26.9997 5.41291M34.2912 19.3026C32.015 20.7264 29.2917 20.843 26.9997 19.8549" stroke="#022C45" stroke-width="1.5" stroke-linecap="round"/>
</svg>
