<svg width="100%" height="100%" viewBox="0 0 24 24" fill="none" xmlns="http://www.w3.org/2000/svg">
<path d="M4.6337 18.7308V17.3317H6.3404V10.0519C6.3404 8.71026 6.75711 7.52276 7.59052 6.48942C8.42392 5.45609 9.49055 4.79103 10.7904 4.49425V3.911C10.7904 3.5751 10.9067 3.2909 11.1392 3.0584C11.3717 2.8259 11.6573 2.70965 11.9959 2.70965C12.3345 2.70965 12.6215 2.8259 12.8567 3.0584C13.092 3.2909 13.2096 3.5751 13.2096 3.911V4.49425C14.5109 4.79103 15.5787 5.45609 16.4129 6.48942C17.2472 7.52276 17.6644 8.71026 17.6644 10.0519V17.3317H19.3711V18.7308H4.6337ZM11.9983 21.45C11.509 21.45 11.0925 21.2776 10.7486 20.9329C10.4047 20.5882 10.2327 20.1715 10.2327 19.6827H13.7673C13.7673 20.1731 13.5948 20.5902 13.2497 20.9341C12.9047 21.278 12.4875 21.45 11.9983 21.45ZM7.7394 17.3317H16.2654V10.0519C16.2654 8.87544 15.8482 7.87122 15.0139 7.03927C14.1796 6.20731 13.1742 5.79132 11.9978 5.79132C10.8214 5.79132 9.81756 6.20731 8.9863 7.03927C8.15503 7.87122 7.7394 8.87544 7.7394 10.0519V17.3317Z" fill="currentColor"/>
</svg>
