<svg width="48" height="48" viewBox="0 0 48 48" fill="none" xmlns="http://www.w3.org/2000/svg">
<path d="M6 7H42V15C42 17.2091 40.2091 19 38 19H10C7.79086 19 6 17.2091 6 15V7Z" fill="#FBD0E3" stroke="#022C45" stroke-width="1.5" stroke-linejoin="round"/>
<path d="M13 13H35V39C35 40.1046 34.1046 41 33 41H15C13.8954 41 13 40.1046 13 39V13Z" fill="#FFF0F7"/>
<path d="M13 13H35H13ZM35.75 39C35.75 40.5188 34.5188 41.75 33 41.75H15C13.4812 41.75 12.25 40.5188 12.25 39H13.75C13.75 39.6904 14.3096 40.25 15 40.25H33C33.6904 40.25 34.25 39.6904 34.25 39H35.75ZM15 41.75C13.4812 41.75 12.25 40.5188 12.25 39V13H13.75V39C13.75 39.6904 14.3096 40.25 15 40.25V41.75ZM35.75 13V39C35.75 40.5188 34.5188 41.75 33 41.75V40.25C33.6904 40.25 34.25 39.6904 34.25 39V13H35.75Z" fill="#022C45"/>
<path d="M18 13H11" stroke="#022C45" stroke-width="1.5" stroke-linecap="round"/>
<path d="M37 13L22 13" stroke="#022C45" stroke-width="1.5" stroke-linecap="round"/>
<path d="M24 32.6008V29.6008" stroke="#022C45" stroke-linecap="round"/>
<path d="M31 12.9792L31 33.5C29.067 33.5 27.5 35.067 27.5 37H20.5C20.5 35.067 18.933 33.5 17 33.5L17 16.9792" stroke="#022C45" stroke-width="1.5" stroke-linecap="round"/>
<circle cx="24" cy="22.5" r="3.5" fill="#E91675"/>
<path d="M24 32.6008V29.6008" stroke="#022C45" stroke-width="1.5" stroke-linecap="round"/>
</svg>
