<svg width="24" height="24" viewBox="0 0 24 24" fill="none" xmlns="http://www.w3.org/2000/svg">
<path d="M5.38619 20.3182C4.91375 20.3182 4.51157 20.1523 4.17964 19.8204C3.84772 19.4884 3.68176 19.0862 3.68176 18.6138V5.3862C3.68176 4.91377 3.84772 4.51159 4.17964 4.17965C4.51157 3.84774 4.91426 3.68178 5.38771 3.68178H11.5548V5.08078H5.38846C5.31155 5.08078 5.24103 5.11283 5.17691 5.17693C5.11281 5.24104 5.08076 5.31156 5.08076 5.38848V18.6115C5.08076 18.6884 5.11281 18.759 5.17691 18.8231C5.24103 18.8872 5.31155 18.9192 5.38846 18.9192H18.6115C18.6884 18.9192 18.7589 18.8872 18.8231 18.8231C18.8872 18.759 18.9192 18.6884 18.9192 18.6115V12.4452H20.3182V18.6123C20.3182 19.0857 20.1523 19.4884 19.8203 19.8204C19.4884 20.1523 19.0862 20.3182 18.6138 20.3182H5.38619ZM9.75191 15.2336L8.76636 14.2481L17.9385 5.08078H13.8385V3.68178H20.3182V10.1615H18.9192V6.06153L9.75191 15.2336Z" fill="#E91675"/>
</svg>
