<svg width="276" height="60" viewBox="0 0 276 60" fill="none" xmlns="http://www.w3.org/2000/svg">
<g filter="url(#filter0_d_208_7233)">
<rect x="0.591797" y="0.000244141" width="270.815" height="56" rx="28" fill="white" shape-rendering="crispEdges"/>
<path d="M41.6478 34.0002V22.7842H49.3918C52.3518 22.7842 53.8398 24.4482 53.8398 26.9122C53.8398 29.3442 52.1278 31.0882 48.7678 31.0882H45.6478V34.0002H41.6478ZM45.6478 28.5442H47.7278C49.0398 28.5442 49.7438 27.9682 49.7438 27.0242C49.7438 26.1122 49.1038 25.5522 47.9518 25.5522H45.6478V28.5442ZM57.9329 34.3202C55.7569 34.3202 54.5089 33.0082 54.5089 31.2802C54.5089 29.4882 55.8689 28.2242 58.1569 28.2242C59.4689 28.2242 60.4129 28.5922 61.1489 29.4722C61.0369 27.9842 59.7889 27.2482 58.0769 27.2482C56.9089 27.2482 55.8209 27.6642 54.9569 28.4002V25.4722C55.9649 24.7842 57.3889 24.2242 59.3569 24.2242C62.9729 24.2242 64.9569 26.0162 64.9569 29.2962V34.0002H61.1649V32.8322C60.5089 33.7922 59.4529 34.3202 57.9329 34.3202ZM59.5169 32.1122C60.4769 32.1122 61.1649 31.6962 61.1649 31.0402C61.1649 30.4162 60.5089 30.0002 59.5329 30.0002C58.6369 30.0002 58.0769 30.4322 58.0769 31.0562C58.0769 31.6962 58.6369 32.1122 59.5169 32.1122ZM67.0125 37.0402L69.1085 33.1522L65.0125 24.6402H69.1885L71.3005 29.6802L73.5565 24.6402H77.7005L71.4285 37.0402H67.0125ZM84.2103 34.0002L81.1543 24.6402H85.2343L86.5623 30.2562L88.2903 24.6402H92.2583L94.0023 30.2882L95.3943 24.6402H99.2983L96.3383 34.0002H92.0183L90.1463 28.3682L88.3543 34.0002H84.2103ZM100.238 34.0002V25.2802H104.158V34.0002H100.238ZM102.222 24.6882C100.974 24.6882 100.078 24.0322 100.078 23.0882C100.078 22.1762 100.974 21.5202 102.222 21.5202C103.454 21.5202 104.318 22.1762 104.318 23.0882C104.318 24.0322 103.454 24.6882 102.222 24.6882ZM107.861 34.0002V27.4402H105.253V24.6402H107.861V23.0082L111.781 22.4322V24.6402H114.613V27.4402H111.781V34.0002H107.861ZM115.707 34.0002V22.4802H119.611V26.8802C120.267 25.0882 121.451 24.2242 123.371 24.2242C125.899 24.2242 127.227 25.7602 127.227 28.7042V34.0002H123.307V29.5362C123.307 28.1282 122.699 27.3922 121.547 27.3922C120.267 27.3922 119.611 28.1442 119.611 29.6002V34.0002H115.707Z" fill="#022C45"/>
<g clip-path="url(#clip0_208_7233)">
<path d="M156.09 30.4206C154.768 35.7777 149.396 39.038 144.093 37.7021C138.791 36.3665 135.564 30.9403 136.886 25.5835C138.208 20.2258 143.579 16.9652 148.881 18.3008C154.185 19.6364 157.412 25.0632 156.09 30.4206Z" fill="#F7931A"/>
<path d="M150.852 26.5768C151.049 25.2462 150.046 24.5309 148.675 24.0537L149.12 22.2513L148.033 21.9778L147.6 23.7328C147.315 23.6609 147.022 23.5931 146.73 23.5259L147.166 21.7594L146.081 21.486L145.636 23.2878C145.399 23.2334 145.167 23.1797 144.942 23.1231L144.943 23.1175L143.445 22.7397L143.157 23.9115C143.157 23.9115 143.962 24.0981 143.945 24.1097C144.385 24.2206 144.465 24.5147 144.451 24.7478L143.945 26.8012C143.975 26.809 144.014 26.8203 144.058 26.8378C144.021 26.8287 143.983 26.8187 143.943 26.809L143.233 29.6855C143.179 29.8205 143.042 30.023 142.735 29.9461C142.746 29.9621 141.945 29.7471 141.945 29.7471L141.406 31.003L142.82 31.3589C143.083 31.4255 143.34 31.4952 143.594 31.5608L143.144 33.3839L144.229 33.6573L144.675 31.8536C144.971 31.9349 145.259 32.0099 145.54 32.0805L145.096 33.8758L146.183 34.1492L146.632 32.3295C148.484 32.6836 149.877 32.5408 150.463 30.8486C150.935 29.4861 150.439 28.7002 149.465 28.1877C150.175 28.0224 150.709 27.5509 150.852 26.5768ZM148.37 30.0921C148.035 31.4546 145.764 30.718 145.027 30.5333L145.624 28.118C146.36 28.3037 148.721 28.6712 148.37 30.0921ZM148.706 26.5571C148.4 27.7965 146.51 27.1668 145.897 27.0124L146.437 24.8219C147.051 24.9762 149.025 25.2643 148.706 26.5571Z" fill="white"/>
<path d="M165.598 24.0518C166.401 24.0518 167.095 24.1971 167.677 24.4824C168.263 24.7705 168.746 25.1587 169.134 25.6468C169.516 26.1374 169.801 26.7108 169.984 27.368C170.167 28.027 170.259 28.7355 170.259 29.4939C170.259 30.6589 170.047 31.7595 169.621 32.797C169.194 33.836 168.615 34.7373 167.879 35.506C167.143 36.2738 166.275 36.8791 165.273 37.3263C164.273 37.7738 163.186 37.9975 162.018 37.9975C161.867 37.9975 161.602 37.9931 161.227 37.9853C160.852 37.9775 160.421 37.9385 159.938 37.8725C159.453 37.8041 158.939 37.7028 158.397 37.5672C157.855 37.4341 157.34 37.2475 156.855 37.0107L161.19 18.6122L165.072 18.0044L163.52 24.5334C163.853 24.3821 164.187 24.2649 164.521 24.1796C164.856 24.0955 165.215 24.0518 165.598 24.0518ZM162.342 34.8863C162.926 34.8863 163.477 34.741 163.995 34.4557C164.514 34.1701 164.962 33.7845 165.337 33.3042C165.712 32.8217 166.009 32.2782 166.226 31.6711C166.442 31.0639 166.552 30.4305 166.552 29.7714C166.552 28.9617 166.418 28.3302 166.151 27.8736C165.884 27.4189 165.39 27.1902 164.673 27.1902C164.438 27.1902 164.135 27.2355 163.759 27.3164C163.382 27.4024 163.045 27.5808 162.743 27.8492L161.09 34.7829C161.19 34.8007 161.278 34.8176 161.353 34.8335C161.427 34.8507 161.508 34.8629 161.589 34.8713C161.675 34.881 161.773 34.886 161.892 34.886C162.01 34.886 162.158 34.8863 162.342 34.8863Z" fill="#4D4D4D"/>
<path d="M174.286 37.6454H170.578L173.71 24.3341H177.443L174.286 37.6454ZM176.091 22.7122C175.573 22.7122 175.104 22.5566 174.687 22.2447C174.268 21.9347 174.06 21.4575 174.06 20.8144C174.06 20.4607 174.131 20.1288 174.272 19.8157C174.415 19.5032 174.602 19.2341 174.837 19.0054C175.071 18.7785 175.342 18.5973 175.65 18.4607C175.96 18.3263 176.29 18.2592 176.642 18.2592C177.159 18.2592 177.626 18.4148 178.044 18.7266C178.46 19.0401 178.669 19.5173 178.669 20.1569C178.669 20.5119 178.599 20.8451 178.456 21.1575C178.315 21.47 178.128 21.7391 177.893 21.9678C177.661 22.195 177.387 22.3756 177.08 22.511C176.769 22.6475 176.441 22.7122 176.091 22.7122Z" fill="#4D4D4D"/>
<path d="M180.691 21.0175L184.575 20.4097L183.621 24.3334H187.781L187.03 27.4202H182.895L181.794 32.0764C181.693 32.4645 181.635 32.827 181.619 33.1638C181.601 33.5023 181.643 33.7929 181.743 34.0376C181.843 34.2829 182.022 34.472 182.282 34.6057C182.541 34.7416 182.911 34.8101 183.397 34.8101C183.797 34.8101 184.186 34.7716 184.563 34.6954C184.938 34.6204 185.317 34.516 185.702 34.3795L185.978 37.2657C185.477 37.4513 184.934 37.611 184.35 37.7453C183.764 37.8816 183.071 37.9472 182.27 37.9472C181.118 37.9472 180.225 37.7744 179.588 37.4303C178.953 37.0838 178.504 36.6104 178.235 36.011C177.97 35.4138 177.851 34.7254 177.884 33.9498C177.919 33.1723 178.035 32.3551 178.235 31.4945L180.691 21.0175Z" fill="#4D4D4D"/>
<path d="M187.619 32.3299C187.619 31.1833 187.803 30.1021 188.17 29.0899C188.537 28.0768 189.065 27.1909 189.75 26.4306C190.433 25.674 191.264 25.0747 192.244 24.6347C193.218 24.1972 194.309 23.9766 195.512 23.9766C196.264 23.9766 196.936 24.0484 197.528 24.1925C198.122 24.3378 198.659 24.5256 199.145 24.7612L197.866 27.6987C197.532 27.5618 197.185 27.4412 196.827 27.3318C196.468 27.2203 196.03 27.1665 195.512 27.1665C194.274 27.1665 193.296 27.5974 192.567 28.4565C191.842 29.3162 191.477 30.4733 191.477 31.9249C191.477 32.7852 191.66 33.4808 192.029 34.013C192.396 34.5451 193.074 34.8098 194.058 34.8098C194.544 34.8098 195.012 34.7586 195.461 34.6586C195.913 34.5573 196.313 34.4298 196.664 34.2792L196.941 37.2904C196.472 37.4742 195.955 37.6401 195.388 37.7854C194.819 37.9257 194.142 37.9985 193.358 37.9985C192.322 37.9985 191.445 37.8454 190.727 37.5439C190.009 37.2376 189.416 36.831 188.949 36.3161C188.48 35.7998 188.143 35.197 187.934 34.5052C187.726 33.8139 187.619 33.0877 187.619 32.3299Z" fill="#4D4D4D"/>
<path d="M204.092 37.9985C203.207 37.9985 202.438 37.8623 201.786 37.5926C201.136 37.3229 200.597 36.9445 200.171 36.4539C199.745 35.9658 199.425 35.3873 199.207 34.7208C198.988 34.0545 198.883 33.3167 198.883 32.5083C198.883 31.4943 199.044 30.4805 199.37 29.4696C199.694 28.4565 200.175 27.5462 200.812 26.7371C201.443 25.9268 202.223 25.2644 203.14 24.7478C204.057 24.2347 205.111 23.9766 206.295 23.9766C207.164 23.9766 207.929 24.1131 208.59 24.3828C209.248 24.6519 209.79 25.0334 210.218 25.5215C210.642 26.0122 210.964 26.5881 211.181 27.2556C211.399 27.9206 211.506 28.6602 211.506 29.4693C211.506 30.4802 211.347 31.4939 211.032 32.508C210.716 33.517 210.247 34.4295 209.629 35.2405C209.011 36.0495 208.239 36.7117 207.312 37.226C206.385 37.7404 205.311 37.9985 204.092 37.9985ZM205.945 27.1668C205.395 27.1668 204.91 27.3281 204.493 27.6465C204.076 27.9687 203.725 28.3737 203.442 28.8621C203.156 29.3527 202.945 29.8877 202.801 30.4693C202.659 31.0521 202.59 31.603 202.59 32.1264C202.59 32.9711 202.725 33.6289 202.99 34.1023C203.259 34.5733 203.741 34.8101 204.443 34.8101C204.995 34.8101 205.478 34.6501 205.897 34.3283C206.312 34.0086 206.663 33.6033 206.948 33.1139C207.232 32.6258 207.446 32.0893 207.589 31.5068C207.729 30.9258 207.801 30.3718 207.801 29.8493C207.801 29.0068 207.666 28.3474 207.399 27.8746C207.132 27.4037 206.646 27.1668 205.945 27.1668Z" fill="#4D4D4D"/>
<path d="M215.547 37.6454H211.836L214.967 24.3341H218.703L215.547 37.6454ZM217.349 22.7122C216.832 22.7122 216.363 22.5566 215.947 22.2447C215.529 21.9347 215.319 21.4575 215.319 20.8144C215.319 20.4607 215.392 20.1288 215.533 19.8157C215.674 19.5032 215.863 19.2341 216.097 19.0054C216.33 18.7785 216.604 18.5973 216.911 18.4607C217.219 18.3263 217.549 18.2592 217.899 18.2592C218.418 18.2592 218.886 18.4148 219.303 18.7266C219.721 19.0401 219.931 19.5173 219.931 20.1569C219.931 20.5119 219.856 20.8451 219.716 21.1575C219.576 21.47 219.388 21.7391 219.154 21.9678C218.919 22.195 218.649 22.3756 218.341 22.511C218.03 22.6475 217.701 22.7122 217.349 22.7122Z" fill="#4D4D4D"/>
<path d="M221.375 24.9393C221.656 24.8562 221.971 24.7562 222.313 24.6474C222.656 24.5387 223.039 24.4374 223.467 24.3462C223.891 24.2521 224.369 24.1759 224.894 24.1168C225.42 24.0565 226.019 24.0271 226.684 24.0271C228.64 24.0271 229.988 24.6024 230.732 25.7496C231.476 26.8967 231.604 28.4667 231.122 30.4567L229.416 37.6441H225.684L227.337 30.6079C227.438 30.1686 227.517 29.7439 227.575 29.3289C227.634 28.9176 227.631 28.5552 227.562 28.2414C227.496 27.9314 227.341 27.6777 227.1 27.4811C226.855 27.2877 226.485 27.1905 225.984 27.1905C225.5 27.1905 225.009 27.243 224.506 27.3442L222.076 37.6438H218.342L221.375 24.9393Z" fill="#4D4D4D"/>
</g>
<rect x="1.5918" y="1.00024" width="268.815" height="54" rx="27" stroke="#022C45" stroke-width="2" shape-rendering="crispEdges"/>
</g>
<defs>
<filter id="filter0_d_208_7233" x="0.591797" y="0.000244141" width="274.814" height="60" filterUnits="userSpaceOnUse" color-interpolation-filters="sRGB">
<feFlood flood-opacity="0" result="BackgroundImageFix"/>
<feColorMatrix in="SourceAlpha" type="matrix" values="0 0 0 0 0 0 0 0 0 0 0 0 0 0 0 0 0 0 127 0" result="hardAlpha"/>
<feOffset dx="4" dy="4"/>
<feComposite in2="hardAlpha" operator="out"/>
<feColorMatrix type="matrix" values="0 0 0 0 0.00784314 0 0 0 0 0.172549 0 0 0 0 0.270588 0 0 0 1 0"/>
<feBlend mode="normal" in2="BackgroundImageFix" result="effect1_dropShadow_208_7233"/>
<feBlend mode="normal" in="SourceGraphic" in2="effect1_dropShadow_208_7233" result="shape"/>
</filter>
<clipPath id="clip0_208_7233">
<rect width="94.8148" height="20" fill="white" transform="translate(136.592 18.0002)"/>
</clipPath>
</defs>
</svg>
