<svg width="100%" height="100%" viewBox="0 0 24 24" fill="none" xmlns="http://www.w3.org/2000/svg">
<path d="M3.68176 21.1827V2.77698L5.02596 3.98753L6.42886 2.77698L7.81154 3.98753L9.21441 2.77698L10.5971 3.98753L12 2.77698L13.4029 3.98753L14.7856 2.77698L16.1884 3.98753L17.5711 2.77698L18.974 3.98753L20.3182 2.77698V21.1827L18.974 19.9721L17.5711 21.1827L16.1884 19.9721L14.7856 21.1827L13.4029 19.9721L12 21.1827L10.5971 19.9721L9.21441 21.1827L7.81154 19.9721L6.42886 21.1827L5.02596 19.9721L3.68176 21.1827ZM6.35096 16.2807H17.649V14.8817H6.35096V16.2807ZM6.35096 12.6769H17.649V11.2779H6.35096V12.6769ZM6.35096 9.0779H17.649V7.67888H6.35096V9.0779ZM5.08076 18.9991H18.9192V4.96058H5.08076V18.9991Z" fill="currentColor"/>
</svg>
