<svg width="100%" height="100%" viewBox="0 0 24 24" fill="none" xmlns="http://www.w3.org/2000/svg">
<path d="M18.9503 19.9119L13.2471 14.2028C12.7516 14.6157 12.1814 14.9341 11.5365 15.1581C10.8917 15.3822 10.2315 15.4942 9.55589 15.4942C7.8817 15.4942 6.46683 14.9162 5.31126 13.7602C4.15569 12.6041 3.57791 11.1916 3.57791 9.52267C3.57791 7.85372 4.15505 6.4404 5.30934 5.2827C6.4636 4.12501 7.8761 3.54617 9.54681 3.54617C11.2175 3.54617 12.6317 4.12474 13.7894 5.28187C14.9471 6.43899 15.5259 7.85282 15.5259 9.52337C15.5259 10.2219 15.4086 10.8949 15.174 11.5423C14.9394 12.1897 14.6263 12.7502 14.2346 13.2237L19.9646 18.9398C20.0953 19.0653 20.1598 19.2215 20.1582 19.4082C20.1566 19.595 20.0833 19.7625 19.9383 19.9107C19.7948 20.051 19.6292 20.1211 19.4414 20.1211C19.2535 20.1211 19.0898 20.0514 18.9503 19.9119ZM9.55194 14.0952C10.8321 14.0952 11.9146 13.6533 12.7995 12.7696C13.6845 11.8859 14.1269 10.8026 14.1269 9.51962C14.1269 8.23666 13.6845 7.15351 12.7995 6.27017C11.9146 5.38684 10.8313 4.94517 9.54954 4.94517C8.2678 4.94517 7.18527 5.38703 6.30194 6.27075C5.4186 7.15447 4.97694 8.2378 4.97694 9.52075C4.97694 10.8037 5.41874 11.8869 6.30234 12.7702C7.18594 13.6535 8.26914 14.0952 9.55194 14.0952Z" fill="currentColor"/>
</svg>
