<svg width="24" height="24" viewBox="0 0 24 24" fill="none" xmlns="http://www.w3.org/2000/svg">
<path d="M9.8058 21.2981L9.42503 18.3125C9.30195 18.2817 9.09169 18.1843 8.79425 18.0202C8.4968 17.8561 8.15641 17.6506 7.77308 17.4038L5.02503 18.5557L2.81833 14.7173L5.2183 12.9058C5.19202 12.7626 5.17487 12.6201 5.16685 12.4782C5.15885 12.3363 5.15485 12.1801 5.15485 12.0096C5.15485 11.8808 5.16094 11.7396 5.1731 11.5861C5.18529 11.4325 5.20292 11.2551 5.226 11.0538L2.81833 9.25768L5.02503 5.4587L7.79615 6.6212C8.02372 6.43337 8.27565 6.25949 8.55195 6.09955C8.82824 5.93962 9.11606 5.80484 9.41543 5.69523L9.8058 2.68178H14.199L14.5798 5.67695C14.89 5.79105 15.1687 5.92294 15.4159 6.07263C15.663 6.22231 15.9102 6.40517 16.1577 6.6212L18.9798 5.4587L21.1865 9.25768L18.6875 11.1241C18.7202 11.285 18.7389 11.4301 18.7437 11.5596C18.7485 11.6891 18.7509 11.8351 18.7509 11.9976C18.7509 12.1537 18.7477 12.2997 18.7413 12.4358C18.7349 12.5718 18.7144 12.7278 18.6798 12.9039L21.1394 14.7173L18.9327 18.5557L16.1577 17.374C15.9288 17.5663 15.691 17.7359 15.4442 17.8827C15.1974 18.0295 14.9093 18.1695 14.5798 18.3029L14.199 21.2981H9.8058ZM11.9669 14.899C12.7697 14.899 13.453 14.6168 14.0168 14.0523C14.5806 13.4879 14.8625 12.8034 14.8625 11.999C14.8625 11.1945 14.5803 10.5104 14.0161 9.94665C13.4518 9.38289 12.7676 9.101 11.9635 9.101C11.1532 9.101 10.4675 9.38323 9.90628 9.94768C9.34506 10.5121 9.06445 11.1966 9.06445 12.001C9.06445 12.8055 9.34506 13.4896 9.90628 14.0534C10.4675 14.6171 11.1544 14.899 11.9669 14.899ZM11.9635 13.5C11.5468 13.5 11.1926 13.3542 10.901 13.0625C10.6093 12.7708 10.4635 12.4167 10.4635 12C10.4635 11.5833 10.6093 11.2292 10.901 10.9375C11.1926 10.6458 11.5468 10.5 11.9635 10.5C12.3769 10.5 12.7303 10.6458 13.0236 10.9375C13.3168 11.2292 13.4635 11.5833 13.4635 12C13.4635 12.4167 13.3168 12.7708 13.0236 13.0625C12.7303 13.3542 12.3769 13.5 11.9635 13.5ZM11.0062 19.8991H12.9461L13.3195 17.2077C13.8148 17.0744 14.2636 16.8904 14.6659 16.6558C15.0681 16.4212 15.4612 16.1109 15.8452 15.725L18.3423 16.7894L19.3144 15.112L17.125 13.475C17.2 13.216 17.2534 12.9661 17.2851 12.7252C17.3168 12.4842 17.3327 12.2417 17.3327 11.9976C17.3327 11.7441 17.3189 11.5042 17.2914 11.2779C17.2638 11.0516 17.2083 10.8071 17.125 10.5442L19.3337 8.8702L18.3817 7.19038L15.8279 8.2702C15.5253 7.93944 15.1404 7.63687 14.6731 7.3625C14.2058 7.08814 13.7506 6.89647 13.3077 6.7875L12.9934 4.08078H11.0154L10.6971 6.77053C10.1702 6.89915 9.70753 7.07564 9.30913 7.3C8.91075 7.52435 8.5061 7.83942 8.0952 8.2452L5.62308 7.19038L4.64615 8.8702L6.79808 10.4673C6.71475 10.718 6.65641 10.9683 6.62308 11.2185C6.58975 11.4686 6.57308 11.7279 6.57308 11.9964C6.57308 12.2469 6.58766 12.493 6.61683 12.7346C6.646 12.9763 6.69904 13.2298 6.77595 13.4952L4.64615 15.1096L5.62288 16.7894L8.07788 15.7394C8.47596 16.1375 8.88302 16.4542 9.29905 16.6894C9.71507 16.9247 10.1772 17.1048 10.6854 17.2298L11.0062 19.8991Z" fill="currentColor"/>
</svg>
