<svg width="100%" height="100%" viewBox="0 0 160 160" fill="none" xmlns="http://www.w3.org/2000/svg">
<path d="M73.4151 5.19532C77.2765 2.14879 82.7235 2.14879 86.5849 5.19532C89.4911 7.48824 93.3808 8.10431 96.8533 6.82168C101.467 5.11749 106.648 6.80072 109.379 10.8914C111.434 13.9701 114.943 15.758 118.642 15.6112C123.556 15.4162 127.963 18.6179 129.296 23.3522C130.3 26.9155 133.085 29.7002 136.648 30.7036C141.382 32.0368 144.584 36.4436 144.389 41.3582C144.242 45.0571 146.03 48.5661 149.109 50.6215C153.199 53.3524 154.883 58.5329 153.178 63.1467C151.896 66.6192 152.512 70.5089 154.805 73.4151C157.851 77.2765 157.851 82.7235 154.805 86.5849C152.512 89.4911 151.896 93.3808 153.178 96.8533C154.883 101.467 153.199 106.648 149.109 109.379C146.03 111.434 144.242 114.943 144.389 118.642C144.584 123.556 141.382 127.963 136.648 129.296C133.085 130.3 130.3 133.085 129.296 136.648C127.963 141.382 123.556 144.584 118.642 144.389C114.943 144.242 111.434 146.03 109.379 149.109C106.648 153.199 101.467 154.883 96.8533 153.178C93.3808 151.896 89.4911 152.512 86.5849 154.805C82.7235 157.851 77.2765 157.851 73.4151 154.805C70.5089 152.512 66.6192 151.896 63.1467 153.178C58.5329 154.883 53.3524 153.199 50.6215 149.109C48.5661 146.03 45.0571 144.242 41.3582 144.389C36.4436 144.584 32.0368 141.382 30.7036 136.648C29.7002 133.085 26.9155 130.3 23.3522 129.296C18.6179 127.963 15.4162 123.556 15.6112 118.642C15.758 114.943 13.9701 111.434 10.8914 109.379C6.80072 106.648 5.11749 101.467 6.82168 96.8533C8.10431 93.3808 7.48824 89.4911 5.19532 86.5849C2.14879 82.7235 2.14879 77.2765 5.19532 73.4151C7.48824 70.5089 8.10431 66.6192 6.82168 63.1467C5.11749 58.5329 6.80072 53.3524 10.8914 50.6215C13.9701 48.5661 15.758 45.0571 15.6112 41.3582C15.4162 36.4436 18.6179 32.0368 23.3522 30.7036C26.9155 29.7002 29.7002 26.9155 30.7036 23.3522C32.0368 18.6179 36.4436 15.4162 41.3582 15.6112C45.0571 15.758 48.5661 13.9701 50.6215 10.8914C53.3524 6.80072 58.5329 5.11749 63.1467 6.82168C66.6192 8.10431 70.5089 7.48824 73.4151 5.19532Z" fill="#58F5AA"/>
<path fill-rule="evenodd" clip-rule="evenodd" d="M73.9506 17.534C77.4978 14.7354 82.5016 14.7354 86.0487 17.534C88.1717 19.209 91.0131 19.659 93.5498 18.7221C97.7881 17.1566 102.547 18.7028 105.056 22.4606C106.557 24.7096 109.12 26.0157 111.823 25.9084C116.337 25.7293 120.385 28.6704 121.61 33.0195C122.343 35.6225 124.377 37.6567 126.98 38.3897C131.329 39.6144 134.271 43.6626 134.091 48.1773C133.984 50.8793 135.29 53.4426 137.539 54.9441C141.297 57.4528 142.843 62.2117 141.278 66.45C140.341 68.9867 140.791 71.8281 142.466 73.9511C145.264 77.4982 145.264 82.502 142.466 86.0492C140.791 88.1722 140.341 91.0136 141.278 93.5502C142.843 97.7886 141.297 102.548 137.539 105.056C135.29 106.558 133.984 109.121 134.091 111.823C134.271 116.338 131.329 120.386 126.98 121.611C124.377 122.344 122.343 124.378 121.61 126.981C120.385 131.33 116.337 134.271 111.823 134.092C109.12 133.985 106.557 135.291 105.056 137.54C102.547 141.297 97.7881 142.844 93.5498 141.278C91.0131 140.341 88.1717 140.791 86.0487 142.466C82.5016 145.265 77.4978 145.265 73.9506 142.466C71.8276 140.791 68.9862 140.341 66.4496 141.278C62.2112 142.844 57.4523 141.297 54.9436 137.54C53.4421 135.291 50.8788 133.985 48.1768 134.092C43.6621 134.271 39.6139 131.33 38.3892 126.981C37.6562 124.378 35.622 122.344 33.019 121.611C28.67 120.386 25.7288 116.338 25.908 111.823C26.0152 109.121 24.7091 106.558 22.4601 105.056C18.7023 102.548 17.1561 97.7886 18.7216 93.5502C19.6585 91.0136 19.2085 88.1722 17.5335 86.0492C14.7349 82.502 14.7349 77.4982 17.5335 73.9511C19.2085 71.8281 19.6585 68.9867 18.7216 66.45C17.1561 62.2117 18.7023 57.4528 22.4601 54.9441C24.7091 53.4426 26.0152 50.8793 25.908 48.1773C25.7288 43.6626 28.67 39.6144 33.019 38.3897C35.622 37.6567 37.6562 35.6225 38.3892 33.0195C39.6139 28.6704 43.6621 25.7293 48.1768 25.9084C50.8788 26.0157 53.4421 24.7096 54.9436 22.4606C57.4523 18.7028 62.2112 17.1566 66.4496 18.7221C68.9862 19.659 71.8276 19.209 73.9506 17.534ZM84.8099 19.1042C81.9892 16.8787 78.0101 16.8787 75.1894 19.1042C72.5197 21.2105 68.9465 21.7764 65.7566 20.5982C62.3862 19.3533 58.6019 20.5829 56.6069 23.5711C54.7188 26.3993 51.4954 28.0417 48.0975 27.9069C44.5074 27.7644 41.2882 30.1032 40.3143 33.5617C39.3926 36.8349 36.8344 39.393 33.5612 40.3148C30.1027 41.2887 27.7639 44.5078 27.9064 48.098C28.0412 51.4959 26.3988 54.7193 23.5706 56.6074C20.5824 58.6024 19.3528 62.3867 20.5977 65.7571C21.7759 68.947 21.21 72.5202 19.1037 75.1899C16.8782 78.0106 16.8782 81.9897 19.1037 84.8104C21.21 87.4801 21.7759 91.0533 20.5977 94.2432C19.3528 97.6136 20.5824 101.398 23.5706 103.393C26.3988 105.281 28.0412 108.504 27.9064 111.902C27.7639 115.492 30.1027 118.712 33.5612 119.685C36.8344 120.607 39.3926 123.165 40.3143 126.439C41.2882 129.897 44.5074 132.236 48.0975 132.093C51.4954 131.959 54.7188 133.601 56.6069 136.429C58.6019 139.417 62.3862 140.647 65.7566 139.402C68.9465 138.224 72.5197 138.79 75.1894 140.896C78.0101 143.122 81.9892 143.122 84.8099 140.896C87.4796 138.79 91.0528 138.224 94.2427 139.402C97.6131 140.647 101.397 139.417 103.392 136.429C105.281 133.601 108.504 131.959 111.902 132.093C115.492 132.236 118.711 129.897 119.685 126.439C120.607 123.165 123.165 120.607 126.438 119.685C129.897 118.712 132.235 115.492 132.093 111.902C131.958 108.504 133.6 105.281 136.429 103.393C139.417 101.398 140.647 97.6136 139.402 94.2432C138.223 91.0533 138.789 87.4801 140.896 84.8104C143.121 81.9897 143.121 78.0106 140.896 75.1899C138.789 72.5202 138.223 68.947 139.402 65.7571C140.647 62.3867 139.417 58.6024 136.429 56.6074C133.6 54.7193 131.958 51.4959 132.093 48.098C132.235 44.5078 129.897 41.2887 126.438 40.3148C123.165 39.393 120.607 36.8349 119.685 33.5617C118.711 30.1032 115.492 27.7644 111.902 27.9069C108.504 28.0417 105.281 26.3993 103.392 23.5711C101.397 20.5829 97.6131 19.3533 94.2427 20.5982C91.0528 21.7764 87.4796 21.2105 84.8099 19.1042Z" fill="#022C45"/>
<circle cx="79.665" cy="79.665" r="50.665" fill="white"/>
<path d="M73.2467 89.6077L62.6375 78.9763C62.0065 78.36 61.2527 78.0445 60.3761 78.0297C59.4996 78.0151 58.7363 78.3327 58.0862 78.9828C57.4215 79.6476 57.0891 80.4109 57.0891 81.2727C57.0891 82.1346 57.4147 82.8838 58.066 83.5204L70.4936 95.9479C71.2709 96.7539 72.1859 97.1569 73.2384 97.1569C74.2909 97.1569 75.2188 96.7539 76.0221 95.9479L101.181 70.7891C101.802 70.1685 102.119 69.4199 102.134 68.5432C102.149 67.6667 101.831 66.8961 101.181 66.2313C100.516 65.5812 99.7529 65.2562 98.891 65.2562C98.0292 65.2562 97.2782 65.5762 96.6383 66.2162L73.2467 89.6077ZM79.6772 122.333C73.7767 122.333 68.2294 121.212 63.0353 118.969C57.8413 116.726 53.3232 113.683 49.481 109.838C45.6388 105.993 42.5981 101.479 40.3589 96.2949C38.1196 91.1107 37 85.5715 37 79.6772C37 73.7767 38.1214 68.2294 40.3641 63.0353C42.6068 57.8413 45.6505 53.3232 49.4952 49.481C53.3399 45.6388 57.8543 42.5981 63.0384 40.3589C68.2226 38.1196 73.7618 37 79.6561 37C85.5567 37 91.104 38.1214 96.298 40.3641C101.492 42.6068 106.01 45.6505 109.852 49.4952C113.695 53.3399 116.735 57.8543 118.974 63.0384C121.214 68.2226 122.333 73.7618 122.333 79.6561C122.333 85.5567 121.212 91.104 118.969 96.298C116.726 101.492 113.683 106.01 109.838 109.852C105.993 113.695 101.479 116.735 96.2949 118.974C91.1107 121.214 85.5715 122.333 79.6772 122.333Z" fill="#58F5AA"/>
</svg>
