<svg width="100%" height="100%" viewBox="0 0 24 24" fill="none" xmlns="http://www.w3.org/2000/svg">
<path d="M12 22.3057C10.0936 22.3057 8.35977 21.8331 6.79855 20.8879C5.23733 19.9427 4.00224 18.6567 3.09327 17.0297V20.1211H1.69427V14.7221H7.09327V16.1211H4.21247C4.93554 17.5673 5.9974 18.7264 7.39805 19.5986C8.7987 20.4707 10.3323 20.9067 11.999 20.9067C13.1971 20.9067 14.3256 20.6851 15.3846 20.2418C16.4436 19.7986 17.3723 19.1918 18.1707 18.4216C18.9691 17.6515 19.6101 16.7434 20.0938 15.6976C20.5774 14.6518 20.8426 13.5253 20.8894 12.3183H22.2884C22.248 13.7053 21.9509 15.0054 21.3971 16.2186C20.8432 17.4318 20.1028 18.4905 19.1759 19.3947C18.249 20.2988 17.17 21.0101 15.9389 21.5283C14.7078 22.0466 13.3949 22.3057 12 22.3057ZM1.71157 11.6971C1.76991 10.2798 2.07858 8.96284 2.6376 7.74623C3.19662 6.52961 3.94212 5.47368 4.87412 4.57845C5.80614 3.68322 6.88366 2.98128 8.10668 2.47263C9.32969 1.96398 10.6278 1.70965 12.0011 1.70965C13.8907 1.70965 15.625 2.18465 17.2038 3.13465C18.7827 4.08467 20.017 5.38276 20.9067 7.02892V3.8943H22.3057V9.2933H16.9067V7.8943H19.7875C19.1023 6.4853 18.0531 5.33544 16.6399 4.44473C15.2268 3.55401 13.6805 3.10865 12.001 3.10865C10.8286 3.10865 9.71443 3.32708 8.65865 3.76393C7.60288 4.20079 6.6726 4.80192 5.8678 5.5673C5.06298 6.33268 4.41394 7.23909 3.92067 8.28653C3.42741 9.33396 3.15737 10.4708 3.11057 11.6971H1.71157Z" fill="currentColor"/>
</svg>
