<svg width="24" height="24" viewBox="0 0 24 24" fill="none" xmlns="http://www.w3.org/2000/svg">
<path d="M12.0023 21.302C10.7164 21.302 9.50753 21.0576 8.37563 20.5688C7.24373 20.0801 6.25913 19.4168 5.42183 18.579C4.58453 17.7411 3.92189 16.7573 3.43391 15.6276C2.94593 14.4978 2.70193 13.2907 2.70193 12.0062C2.70193 10.7203 2.94631 9.51146 3.43506 8.37956C3.92379 7.24766 4.58708 6.26306 5.42493 5.42576C6.26277 4.58846 7.24656 3.92581 8.37631 3.43783C9.50606 2.94985 10.7132 2.70586 11.9977 2.70586C13.2836 2.70586 14.4924 2.95023 15.6243 3.43898C16.7562 3.92771 17.7408 4.59101 18.5781 5.42886C19.4154 6.26669 20.0781 7.25048 20.5661 8.38023C21.054 9.50998 21.298 10.7171 21.298 12.0016C21.298 13.2875 21.0537 14.4964 20.5649 15.6283C20.0762 16.7602 19.4129 17.7448 18.575 18.5821C17.7372 19.4194 16.7534 20.082 15.6237 20.57C14.4939 21.058 13.2868 21.302 12.0023 21.302ZM11.9997 19.903C14.198 19.903 16.0641 19.1361 17.5981 17.6023C19.132 16.0685 19.899 14.2025 19.899 12.0042C19.899 9.80593 19.1322 7.9398 17.5984 6.40583C16.0646 4.87185 14.1986 4.10486 12.0003 4.10486C9.80201 4.10486 7.93588 4.87174 6.40191 6.40551C4.86793 7.93927 4.10093 9.8053 4.10093 12.0036C4.10093 14.2019 4.86782 16.068 6.40158 17.602C7.93535 19.136 9.80138 19.903 11.9997 19.903Z" fill="#FBD0E3"/>
<path d="M12.7096 16.649H11.3106V11.0202H12.7096V16.649Z" fill="#E91675"/>
<path d="M12.5476 9.15218C12.4011 9.2969 12.2177 9.36926 11.9974 9.36926C11.777 9.36926 11.5945 9.29602 11.4498 9.14956C11.3051 9.00307 11.2327 8.81966 11.2327 8.59933C11.2327 8.379 11.3059 8.19647 11.4524 8.05176C11.5989 7.90702 11.7823 7.83466 12.0026 7.83466C12.223 7.83466 12.4055 7.9079 12.5502 8.05438C12.6949 8.20085 12.7673 8.38426 12.7673 8.60461C12.7673 8.82494 12.6941 9.00747 12.5476 9.15218Z" fill="#E91675"/>
<path d="M20.578 8.37195C20.088 7.24195 19.428 6.26195 18.588 5.42195C17.748 4.58195 16.768 3.92195 15.638 3.43195C14.498 2.94195 13.288 2.70195 12.008 2.70195V4.10195C14.208 4.10195 16.068 4.87195 17.608 6.40195C19.148 7.93195 19.908 9.80195 19.908 12.002C19.908 14.202 19.138 16.0619 17.608 17.6019C16.078 19.132 14.208 19.902 12.008 19.902V21.302C13.288 21.302 14.498 21.062 15.628 20.572C16.758 20.082 17.738 19.4219 18.578 18.582C19.418 17.742 20.078 16.762 20.568 15.632C21.058 14.502 21.298 13.292 21.298 12.002C21.298 10.712 21.058 9.51195 20.568 8.38195L20.578 8.37195Z" fill="#E91675"/>
</svg>
