<svg width="100%" height="100%" viewBox="0 0 24 24" fill="none" xmlns="http://www.w3.org/2000/svg">
<path d="M7.3683 20.298C6.89735 20.298 6.49516 20.1313 6.16173 19.7979C5.82829 19.4645 5.66158 19.0623 5.66158 18.5913V6.06057H4.68178V4.66317H9.04038V3.81735H14.9798V4.66157H19.3384V6.06057H18.3586V18.5935C18.3586 19.066 18.1927 19.4682 17.8607 19.8001C17.5288 20.1321 17.1259 20.298 16.6519 20.298H7.3683ZM16.9596 6.06057H7.06058V18.5913C7.06058 18.6811 7.08943 18.7548 7.14713 18.8125C7.20483 18.8702 7.27855 18.8991 7.3683 18.8991H16.6519C16.7288 18.8991 16.7994 18.867 16.8635 18.8029C16.9276 18.7388 16.9596 18.6683 16.9596 18.5913V6.06057ZM9.50483 16.9269H10.9039V8.02787H9.50483V16.9269ZM13.1164 16.9269H14.5154V8.02787H13.1164V16.9269Z" fill="currentColor"/>
</svg>
