<svg width="40" height="40" viewBox="0 0 40 40" fill="none" xmlns="http://www.w3.org/2000/svg">
<circle cx="20" cy="20" r="20" fill="#58F5AA"/>
<path d="M17.2774 22.4059H14.4854C14.6174 23.9637 15.0992 25.1452 15.9309 25.9505C16.7626 26.7558 17.9177 27.2112 19.3962 27.3168V29H20.5646V27.3168C21.5547 27.2508 22.3665 27.0528 23.0002 26.7228C23.6339 26.3927 24.1355 26.0165 24.5052 25.5941C24.888 25.1716 25.152 24.7426 25.2972 24.3069C25.4424 23.8581 25.5151 23.4884 25.5151 23.198C25.5151 22.868 25.4887 22.4917 25.4358 22.0693C25.3962 21.6469 25.251 21.2244 25.0002 20.802C24.7494 20.3795 24.3599 19.9769 23.8319 19.5941C23.3038 19.198 22.5514 18.868 21.5745 18.604C21.3896 18.5512 21.2114 18.505 21.0398 18.4653C20.8814 18.4257 20.723 18.3861 20.5646 18.3465V14.8416C21.0134 14.8416 21.3962 15.0264 21.7131 15.396C22.0299 15.7657 22.1949 16.2145 22.2081 16.7426H25.02C24.9804 16.0561 24.8352 15.462 24.5844 14.9604C24.3335 14.4587 24.0101 14.0429 23.6141 13.7129C23.218 13.3696 22.756 13.1056 22.2279 12.9208C21.7131 12.7228 21.1586 12.5908 20.5646 12.5248V11H19.3962V12.5248C18.8022 12.5644 18.2279 12.6832 17.6735 12.8812C17.119 13.066 16.6306 13.3366 16.2081 13.6931C15.7857 14.0363 15.4424 14.4653 15.1784 14.9802C14.9276 15.495 14.8022 16.0891 14.8022 16.7624C14.8022 17.4224 14.9144 17.9769 15.1388 18.4257C15.3632 18.8614 15.6603 19.231 16.0299 19.5347C16.4127 19.8251 16.8418 20.0627 17.317 20.2475C17.7923 20.4191 18.2741 20.571 18.7626 20.703C18.8946 20.7294 19.0134 20.7624 19.119 20.802C19.2378 20.8284 19.3302 20.8548 19.3962 20.8812V25.0198C18.789 24.901 18.2807 24.6238 17.8715 24.1881C17.4622 23.7525 17.2642 23.1584 17.2774 22.4059ZM20.5646 25.0198V21.2178C21.3434 21.429 21.8913 21.6667 22.2081 21.9307C22.5382 22.1815 22.7032 22.5644 22.7032 23.0792C22.7032 23.396 22.6372 23.6733 22.5052 23.9109C22.3731 24.1353 22.2015 24.3267 21.9903 24.4852C21.7923 24.6436 21.5613 24.769 21.2972 24.8614C21.0464 24.9406 20.8022 24.9934 20.5646 25.0198ZM19.3962 14.8416V18.0693C18.7626 17.9241 18.3071 17.7327 18.0299 17.495C17.7527 17.2574 17.6141 16.9208 17.6141 16.4851C17.6141 16.2079 17.6603 15.9703 17.7527 15.7723C17.8583 15.5611 17.9969 15.3894 18.1685 15.2574C18.3401 15.1122 18.5316 15.0066 18.7428 14.9406C18.954 14.8746 19.1718 14.8416 19.3962 14.8416Z" fill="#022C45"/>
</svg>
