<svg width="100%" height="100%" viewBox="0 0 24 24" fill="none" xmlns="http://www.w3.org/2000/svg">
<path d="M11.9999 11.7126C11.0592 11.7126 10.2575 11.3812 9.59484 10.7186C8.93219 10.0559 8.60087 9.25425 8.60087 8.31355C8.60087 7.37285 8.93219 6.57118 9.59484 5.90853C10.2575 5.24588 11.0592 4.91455 11.9999 4.91455C12.9406 4.91455 13.7422 5.24588 14.4049 5.90853C15.0675 6.57118 15.3989 7.37285 15.3989 8.31355C15.3989 9.25425 15.0675 10.0559 14.4049 10.7186C13.7422 11.3812 12.9406 11.7126 11.9999 11.7126ZM4.68164 19.0452V16.9434C4.68164 16.4664 4.80917 16.028 5.06424 15.6283C5.31931 15.2286 5.66657 14.9197 6.10604 14.7018C7.08294 14.2305 8.06252 13.8749 9.04477 13.635C10.027 13.3951 11.0121 13.2751 12 13.2751C12.9879 13.2751 13.9733 13.395 14.9562 13.6347C15.9392 13.8745 16.9187 14.23 17.8948 14.7014C18.334 14.9194 18.6809 15.2283 18.9358 15.6281C19.1907 16.0279 19.3181 16.4663 19.3181 16.9434V19.0452H4.68164ZM6.08064 17.6462H17.9191V16.9446C17.9191 16.738 17.8604 16.548 17.7431 16.3746C17.6258 16.2012 17.464 16.0584 17.2575 15.9462C16.4003 15.527 15.533 15.2102 14.6555 14.9957C13.7781 14.7813 12.8926 14.6741 11.9992 14.6741C11.1 14.6741 10.2131 14.7813 9.33859 14.9957C8.46406 15.2102 7.60019 15.527 6.74699 15.9462C6.53737 16.0584 6.37391 16.2015 6.25659 16.3755C6.13929 16.5496 6.08064 16.7388 6.08064 16.9434V17.6462ZM11.9999 10.3136C12.5499 10.3136 13.0207 10.1177 13.4124 9.72605C13.804 9.33438 13.9999 8.86355 13.9999 8.31355C13.9999 7.76355 13.804 7.29272 13.4124 6.90105C13.0207 6.50938 12.5499 6.31355 11.9999 6.31355C11.4499 6.31355 10.979 6.50938 10.5874 6.90105C10.1957 7.29272 9.99987 7.76355 9.99987 8.31355C9.99987 8.86355 10.1957 9.33438 10.5874 9.72605C10.979 10.1177 11.4499 10.3136 11.9999 10.3136Z" fill="currentColor"/>
</svg>
