<svg width="24" height="24" viewBox="0 0 24 24" fill="none" xmlns="http://www.w3.org/2000/svg">
<path d="M15.9596 13.4798C16.3795 13.4798 16.7311 13.3381 17.0144 13.0548C17.2977 12.7715 17.4394 12.4199 17.4394 12C17.4394 11.5801 17.2977 11.2285 17.0144 10.9452C16.7311 10.6619 16.3795 10.5202 15.9596 10.5202C15.5397 10.5202 15.1881 10.6619 14.9048 10.9452C14.6215 11.2285 14.4798 11.5801 14.4798 12C14.4798 12.4199 14.6215 12.7715 14.9048 13.0548C15.1881 13.3381 15.5397 13.4798 15.9596 13.4798ZM5.10093 17.7576V18.9192V5.08078V17.7576ZM5.40663 20.3182C4.93403 20.3182 4.53177 20.1523 4.19983 19.8204C3.8679 19.4884 3.70193 19.0862 3.70193 18.6138V5.3862C3.70193 4.91377 3.8679 4.51159 4.19983 4.17965C4.53177 3.84774 4.93403 3.68178 5.40663 3.68178H18.6135C19.0861 3.68178 19.4884 3.84774 19.8203 4.17965C20.1523 4.51159 20.3182 4.91453 20.3182 5.38848V8.17023H18.9192V5.38848C18.9192 5.29873 18.8904 5.22501 18.8327 5.16733C18.775 5.10963 18.7013 5.08078 18.6115 5.08078H5.40866C5.31891 5.08078 5.24518 5.10963 5.18748 5.16733C5.12978 5.22501 5.10093 5.29873 5.10093 5.38848V18.6115C5.10093 18.7013 5.12978 18.775 5.18748 18.8327C5.24518 18.8904 5.31891 18.9192 5.40866 18.9192H18.6115C18.7013 18.9192 18.775 18.8904 18.8327 18.8327C18.8904 18.775 18.9192 18.7013 18.9192 18.6115V15.8298H20.3182V18.6115C20.3182 19.0855 20.1523 19.4884 19.8203 19.8204C19.4884 20.1523 19.0861 20.3182 18.6135 20.3182H5.40663ZM13.3481 16.3586C12.8513 16.3586 12.4359 16.1916 12.1019 15.8577C11.768 15.5237 11.601 15.1083 11.601 14.6115V9.38848C11.601 8.89169 11.768 8.47631 12.1019 8.14233C12.4359 7.80836 12.8513 7.64138 13.3481 7.64138H19.5509C20.0477 7.64138 20.4631 7.80836 20.7971 8.14233C21.131 8.47631 21.298 8.89169 21.298 9.38848V14.6115C21.298 15.1083 21.131 15.5237 20.7971 15.8577C20.4631 16.1916 20.0477 16.3586 19.5509 16.3586H13.3481ZM19.5913 14.9596C19.6811 14.9596 19.7548 14.9308 19.8125 14.8731C19.8702 14.8154 19.899 14.7417 19.899 14.6519V9.3481C19.899 9.25835 19.8702 9.18463 19.8125 9.12693C19.7548 9.06923 19.6811 9.04038 19.5913 9.04038H13.3077C13.218 9.04038 13.1442 9.06923 13.0865 9.12693C13.0288 9.18463 13 9.25835 13 9.3481V14.6519C13 14.7417 13.0288 14.8154 13.0865 14.8731C13.1442 14.9308 13.218 14.9596 13.3077 14.9596H19.5913Z" fill="currentColor"/>
</svg>
