<svg width="24" height="24" viewBox="0 0 24 24" fill="none" xmlns="http://www.w3.org/2000/svg">
<path d="M7.0033 20.6971C5.70377 20.6971 4.59549 20.239 3.67845 19.3227C2.76142 18.4064 2.3029 17.2988 2.3029 16C2.3029 14.9173 2.62009 13.9626 3.25445 13.1359C3.8888 12.3091 4.70462 11.7629 5.7019 11.4972V12.9788C5.11537 13.2256 4.6354 13.6221 4.262 14.1682C3.8886 14.7143 3.7019 15.3244 3.7019 15.9984C3.7019 16.9111 4.0239 17.6892 4.6679 18.3328C5.31189 18.9763 6.08929 19.2981 7.00013 19.2981C7.91094 19.2981 8.68911 18.9761 9.33463 18.3322C9.98014 17.6882 10.3029 16.9108 10.3029 16V15.2981H15.9048C16.016 15.1161 16.1668 14.968 16.3574 14.8539C16.548 14.7398 16.7618 14.6827 16.9988 14.6827C17.364 14.6827 17.6751 14.811 17.932 15.0677C18.1889 15.3243 18.3173 15.6351 18.3173 15.9999C18.3173 16.3647 18.1888 16.6747 17.9318 16.9298C17.6748 17.1849 17.3636 17.3125 16.9983 17.3125C16.7604 17.3125 16.5467 17.2579 16.3571 17.1486C16.1675 17.0393 16.017 16.8888 15.9055 16.6971H11.6541C11.4552 17.8888 10.9156 18.8534 10.0352 19.5909C9.15482 20.3284 8.14419 20.6971 7.0033 20.6971ZM17 20.6971C16.2058 20.6971 15.4778 20.5188 14.816 20.1621C14.1541 19.8055 13.603 19.3123 13.1625 18.6827H15.0894C15.3503 18.8782 15.6443 19.0297 15.9715 19.137C16.2986 19.2444 16.6405 19.2981 16.9972 19.2981C17.9096 19.2981 18.6887 18.9761 19.3344 18.3321C19.9801 17.6881 20.3029 16.9107 20.3029 15.9999C20.3029 15.0891 19.9803 14.3109 19.3352 13.6654C18.69 13.0199 17.9111 12.6971 16.9986 12.6971C16.6903 12.6971 16.4037 12.7352 16.1389 12.8115C15.8741 12.8878 15.6217 12.9974 15.3817 13.1404L12.4693 8.2875C12.1232 8.2845 11.823 8.1619 11.5688 7.9197C11.3146 7.6775 11.1875 7.37079 11.1875 6.99958C11.1875 6.63456 11.3153 6.32383 11.5709 6.06738C11.8265 5.81093 12.1368 5.6827 12.5016 5.6827C12.8664 5.6827 13.1769 5.8114 13.4331 6.0688C13.6892 6.32619 13.8173 6.63782 13.8173 7.0037C13.8173 7.1038 13.8077 7.19819 13.7885 7.28688C13.7692 7.37554 13.7333 7.46261 13.6808 7.54808L15.9721 11.4145C16.1349 11.3811 16.3009 11.3534 16.4701 11.3313C16.6393 11.3092 16.8165 11.2981 17.0017 11.2981C18.3008 11.2981 19.4089 11.7569 20.3261 12.6744C21.2433 13.5919 21.7019 14.7003 21.7019 15.9998C21.7019 17.2993 21.2431 18.407 20.3256 19.3231C19.4081 20.2391 18.2995 20.6971 17 20.6971ZM7.00013 17.3125C6.63531 17.3125 6.32534 17.1847 6.0702 16.9291C5.81507 16.6734 5.6875 16.3639 5.6875 16.0006C5.6875 15.6598 5.80528 15.3628 6.04083 15.1095C6.27638 14.8562 6.58072 14.7197 6.95385 14.7L9.43753 10.563C8.91573 10.1152 8.51284 9.58457 8.22888 8.971C7.94489 8.35744 7.8029 7.70161 7.8029 7.00353C7.8029 5.70183 8.26121 4.59216 9.17783 3.67453C10.0944 2.75691 11.2018 2.2981 12.5 2.2981C13.7891 2.2981 14.8909 2.75275 15.8053 3.66203C16.7197 4.57133 17.1852 5.66636 17.2019 6.94713H15.8029C15.7946 6.04135 15.4684 5.27323 14.8245 4.64278C14.1806 4.01233 13.4045 3.6971 12.4962 3.6971C11.5878 3.6971 10.8117 4.01955 10.1678 4.66445C9.52386 5.30935 9.2019 6.08787 9.2019 7C9.2019 7.7123 9.39918 8.34326 9.79373 8.89288C10.1883 9.4425 10.7083 9.8407 11.3538 10.0875L8.16538 15.4232C8.21794 15.5154 8.2564 15.6114 8.28075 15.711C8.30512 15.8107 8.3173 15.9091 8.3173 16.0063C8.3173 16.3663 8.18898 16.674 7.93233 16.9294C7.67566 17.1848 7.36493 17.3125 7.00013 17.3125Z" fill="#E91675"/>
</svg>
